<svg width="31" height="30" viewBox="0 0 31 30" fill="none" xmlns="http://www.w3.org/2000/svg">
<path d="M15.4606 0C6.95725 0 0 6.76204 0 15.0904C0 22.6205 5.65856 28.8705 13.0487 30V19.4578H9.12173V15.0904H13.0487V11.762C13.0487 7.98192 15.3523 5.90361 18.8928 5.90361C20.578 5.90361 22.3405 6.18975 22.3405 6.18975V9.90963H20.3925C18.4754 9.90963 17.8724 11.0693 17.8724 12.2591V15.0904H22.1704L21.4747 19.4578H17.8724V30C21.5155 29.4395 24.8331 27.6288 27.2259 24.8946C29.6187 22.1605 30.9295 18.6831 30.9211 15.0904C30.9211 6.76204 23.9639 0 15.4606 0Z" fill="#D1D1D1"/>
</svg>
