<svg width="326" height="391" viewBox="0 0 326 391" fill="none" xmlns="http://www.w3.org/2000/svg">
<path d="M179.354 63.5508L169.146 66.5279L181.48 97.5752V125.22H192.113V109.058C185.733 100.978 200.194 100.978 194.239 109.058V125.22H204.872V97.5752L216.781 66.5279L206.999 63.5508C203.596 78.5215 196.224 93.6057 192.964 99.2764C186.159 88.3886 181.055 70.9227 179.354 63.5508Z" fill="#ECBD56" stroke="#ECBD56" stroke-width="2"/>
<path d="M33.0488 244.306L23.5 116.714C32.3875 117.84 45.1916 118.876 60.9709 119.692C64.5559 96.8563 60.059 89.1874 57.2912 88.2189L49.6357 85.2417C53.3217 63.2675 61.119 17.5329 62.8202 10.3878C64.5214 3.24265 70.0504 2.59052 72.6022 3.15759L100.247 9.11186C93.3502 27.832 87.2194 89.2698 84.7617 120.674C94.3103 120.978 104.547 121.207 115.339 121.341L120.236 19.3194C120.236 11.2386 130.444 11.2386 130.444 19.3194L135.347 121.478C179.477 121.536 230.719 120.023 281.386 115.88L280.576 24.4231H238.897C238.897 22.7219 241.363 18.9792 251.23 17.6182C261.097 16.2572 279.159 15.917 286.956 15.917C289.791 15.7752 295.377 16.6825 295.037 21.446C294.717 25.927 294.873 82.1975 295.011 114.7C302.376 114.026 309.713 113.293 317 112.5L309.072 244.306C309.072 217.674 301.501 148.834 295.037 143C239.747 145.977 207.393 161.855 44.5 143C37.2698 159.587 33.0488 215.385 33.0488 244.306Z" fill="#ECBD56"/>
<path d="M142.352 14.6411C137.674 11.6639 134.271 16.3423 137.249 19.3194L154.261 34.2051L159.364 29.1014L142.352 14.6411Z" fill="#ECBD56"/>
<path d="M33.0488 244.306L23.5 116.714C66.0305 122.101 198.255 125.429 317 112.5L309.072 244.306C309.072 217.674 301.501 148.834 295.037 143C239.747 145.977 207.393 161.855 44.5 143C37.2698 159.587 33.0488 215.385 33.0488 244.306ZM60.6937 121.392L84.5108 123.944C86.7791 93.7476 93.1019 28.5058 100.247 9.11186L72.6022 3.15759C70.0504 2.59052 64.5214 3.24265 62.8202 10.3878C61.119 17.5329 53.3217 63.2675 49.6357 85.2417L57.2912 88.2189C60.1266 89.2111 64.7766 97.2349 60.6937 121.392ZM115.133 125.645L120.236 19.3194C120.236 11.2386 130.444 11.2386 130.444 19.3194L135.547 125.645H115.133ZM137.249 19.3194C134.271 16.3423 137.674 11.6639 142.352 14.6411L159.364 29.1014L154.261 34.2051L137.249 19.3194ZM238.897 24.4231C238.897 22.7219 241.363 18.9792 251.23 17.6182C261.097 16.2572 279.159 15.917 286.956 15.917C289.791 15.7752 295.377 16.6825 295.037 21.446C294.697 26.2094 294.895 89.4948 295.037 120.542H281.427L280.576 24.4231H238.897Z" stroke="#ECBD56" stroke-width="5"/>
<path d="M44.5 307.5L34.5 285L31.7715 322.563C70.5593 335.492 141.217 373.032 171.697 390.186C199.937 371.813 275.897 337.448 310.346 322.563V265.5L295 307.5C236.818 330.977 192.537 357.308 171.697 369.5C149.156 356.741 96.3872 327.915 44.5 307.5Z" fill="#ECBD56"/>
<path fill-rule="evenodd" clip-rule="evenodd" d="M125.722 215.911L134.79 208.053L146.275 198.784L151.313 188.91L157.358 184.477L169.649 167.5L170.657 171.782H172.269L168.037 180.447L172.269 185.888L174.284 184.477L176.501 185.888L174.284 188.91V193.746L176.501 192.134V187.701L183.15 192.134V197.172L180.531 198.784L183.352 199.59V202.612L185.568 200.799L184.762 204.224L186.374 203.418L188.188 208.053L186.374 212.889L194.636 216.919L193.628 211.881L197.86 215.911L197.255 211.277L201.89 214.299L205.315 215.911L210.554 221.352L213.98 228.606L218.211 231.024L223.652 232.636L235.944 246.943V244.323L238.563 245.331L242.795 253.391L251.258 259.839L245.616 250.973L248.437 252.383L252.265 253.391L251.258 248.353L261.534 255.204L254.683 248.353L247.631 244.122L246.422 238.882L242.795 236.464L240.981 234.248L227.682 223.971L218.211 204.224L213.98 199.59L210.554 192.134L204.5 185L196.651 175L179.725 160.5L174.284 166L169.649 160.5L157.358 178.5L148.5 183L142.85 194.552L132.5 202.612L125.722 215.911ZM2 306.386L12.8811 301.751V297.318L31.0163 286.437L53.786 256.615H63.458L84.0112 232.233H87.4368L105.169 215.911V245.331L111.415 266.891L124.715 278.175L121.088 256.615L114.035 252.383L108.191 242.107L117.259 249.562L111.415 235.054L117.259 238.278L111.415 225.583H114.035H117.259L119.879 228.606L124 223.971L125.722 231.427L128.745 235.054L133.178 229.815L142.85 228.606V236.464L157.358 254.398L158.97 262.257L157.358 271.526L168.843 281.198L170.858 271.526L165.015 268.302L160.985 259.839L168.843 264.07L160.985 248.353V242.107L182.143 264.07L194.636 271.526L189.397 262.257H196.651H200.278L217.405 278.175L212.569 269.712L227.883 279.384L201.89 257.824H194.636L178.516 250.973L142.85 225.583L132.5 227.5L124 220.5L119.879 221.352L105.169 205.635L87.4368 222.762L82 223.868L62.5 249.562L50.5 250.5L27.5 281L8 290.5V299L2 306.386ZM160.985 205.635L161.992 209.665L163 207.65L164.007 203.217L168.037 205.635L169.649 202.612V200.799L172.269 207.65L174.284 203.418L171.463 200.194L170.657 195.761L169.649 193.746L168.037 188.91L164.813 184.477L160.179 190.724V194.552L163 198.381V202.612L160.985 205.635ZM175.493 218.128L178.516 214.299V208.053L179.725 205.635L180.531 209.665L183.15 215.911L188.188 219.538L190.606 225.583L196.651 229.815L200.278 234.248L186.374 225.583H182.143L179.725 223.971L177.508 222.762V221.352L175.493 218.128ZM232.115 202L227.682 212.889L232.115 207.045L238.563 204.224L247.228 193.142L257.706 198.179L271.609 212.486L277.654 221.956L282.893 224.979L290.752 235.054L309.492 255.809L324 266.085L314 252.383L297 232.636L287.327 222.158L282.289 219.538L278.259 211.277L263.549 193.142L247.228 185.888L238.563 197.172L232.115 202ZM251.258 226.792L252.265 219.135H257.706L251.258 226.792ZM268.818 233.024V236.248L271.035 230.606L268.818 233.024ZM247.258 199.172L250.683 203.202L260.355 223.352H263.982V225.971H268.818L274.259 232.419L272.848 236.248L282.722 246.323L286.752 246.122L294.812 250.353H296.626L304.283 259.421H306.499L304.686 257.809L286.349 237.255L278.289 227.18L273.05 224.158L267.005 214.687L253.101 200.179L247.258 199.172ZM263.549 260.645L265.967 259.033L268.788 260.645V257.421H270.199L273.423 261.249L279.871 266.085L271.005 253.391L264.96 254.801L265.967 257.421L263.549 260.645ZM284.908 261.249L290.752 263.869L295.387 268.302L287.327 265.682L288.536 263.869L284.908 261.249ZM174.888 168.961L179.523 164.931L180.127 167.148L183.754 169.364L184.762 176.417L186.374 178.432H184.157L183.15 176.417L176.5 169.364L174.888 168.961ZM182.545 185.082L187.18 188.507L185.366 184.477L190.807 188.104L195.441 194.754L204.106 201.403V211.075L192.419 200.799L190.807 195.358L185.366 190.724L182.545 185.082Z" fill="#ECBD56"/>
<path d="M134.79 208.053L133.534 206.496L133.506 206.518L133.48 206.541L134.79 208.053ZM125.722 215.911L123.94 215.003L127.032 217.423L125.722 215.911ZM146.275 198.784L147.531 200.34L147.863 200.072L148.057 199.693L146.275 198.784ZM151.313 188.91L150.13 187.297L149.747 187.578L149.531 188.001L151.313 188.91ZM157.358 184.477L158.541 186.09L158.794 185.904L158.978 185.65L157.358 184.477ZM169.649 167.5L171.596 167.042L170.595 162.784L168.029 166.327L169.649 167.5ZM170.657 171.782L168.71 172.24L169.073 173.782H170.657V171.782ZM172.269 171.782L174.066 172.66L175.472 169.782H172.269V171.782ZM168.037 180.447L166.24 179.569L165.693 180.69L166.459 181.675L168.037 180.447ZM172.269 185.888L170.69 187.115L171.858 188.617L173.416 187.526L172.269 185.888ZM174.284 184.477L175.358 182.79L174.231 182.073L173.137 182.839L174.284 184.477ZM176.501 185.888L178.113 187.07L179.377 185.347L177.574 184.2L176.501 185.888ZM174.284 188.91L172.671 187.727L172.284 188.255V188.91H174.284ZM174.284 193.746H172.284V197.674L175.46 195.364L174.284 193.746ZM176.501 192.134L177.677 193.752L178.501 193.153V192.134H176.501ZM176.501 187.701L177.61 186.037L174.501 183.964V187.701H176.501ZM183.15 192.134H185.15V191.064L184.259 190.47L183.15 192.134ZM183.15 197.172L184.198 198.875L185.15 198.289V197.172H183.15ZM180.531 198.784L179.482 197.08L175.616 199.46L179.981 200.707L180.531 198.784ZM183.352 199.59H185.352V198.081L183.901 197.667L183.352 199.59ZM183.352 202.612H181.352V206.833L184.618 204.16L183.352 202.612ZM185.568 200.799L187.515 201.257L188.866 195.517L184.302 199.251L185.568 200.799ZM184.762 204.224L182.815 203.766L181.837 207.923L185.657 206.013L184.762 204.224ZM186.374 203.418L188.237 202.689L187.439 200.65L185.48 201.629L186.374 203.418ZM188.188 208.053L190.06 208.755L190.329 208.037L190.05 207.324L188.188 208.053ZM186.374 212.889L184.501 212.187L183.863 213.889L185.497 214.686L186.374 212.889ZM194.636 216.919L193.759 218.716L197.389 220.487L196.597 216.527L194.636 216.919ZM193.628 211.881L195.007 210.433L190.426 206.07L191.667 212.273L193.628 211.881ZM197.86 215.911L196.48 217.36L200.574 221.258L199.843 215.653L197.86 215.911ZM197.255 211.277L198.348 209.602L194.71 207.229L195.272 211.535L197.255 211.277ZM201.89 214.299L200.797 215.974L200.913 216.05L201.038 216.109L201.89 214.299ZM205.315 215.911L206.756 214.524L206.5 214.259L206.167 214.102L205.315 215.911ZM210.554 221.352L212.363 220.498L212.223 220.201L211.995 219.965L210.554 221.352ZM213.98 228.606L212.171 229.46L212.44 230.03L212.988 230.342L213.98 228.606ZM218.211 231.024L217.219 232.76L217.421 232.876L217.643 232.942L218.211 231.024ZM223.652 232.636L225.169 231.333L224.785 230.886L224.22 230.718L223.652 232.636ZM235.944 246.943L234.427 248.246L237.944 252.339V246.943H235.944ZM235.944 244.323L236.662 242.456L233.944 241.411V244.323H235.944ZM238.563 245.331L240.334 244.401L239.984 243.734L239.281 243.464L238.563 245.331ZM242.795 253.391L241.024 254.32L241.23 254.713L241.583 254.981L242.795 253.391ZM251.258 259.839L250.046 261.43L252.945 258.765L251.258 259.839ZM245.616 250.973L246.51 249.184L240.052 245.955L243.928 252.046L245.616 250.973ZM248.437 252.383L247.542 254.172L247.727 254.265L247.928 254.317L248.437 252.383ZM252.265 253.391L251.756 255.325L254.855 256.14L254.226 252.998L252.265 253.391ZM251.258 248.353L252.367 246.689L248.35 244.011L249.297 248.745L251.258 248.353ZM261.534 255.204L260.425 256.868L262.948 253.79L261.534 255.204ZM254.683 248.353L256.097 246.939L255.923 246.765L255.712 246.638L254.683 248.353ZM247.631 244.122L245.682 244.571L245.873 245.399L246.602 245.837L247.631 244.122ZM246.422 238.882L248.37 238.433L248.192 237.659L247.531 237.218L246.422 238.882ZM242.795 236.464L241.247 237.731L241.436 237.963L241.685 238.129L242.795 236.464ZM240.981 234.248L242.529 232.981L242.385 232.805L242.204 232.665L240.981 234.248ZM227.682 223.971L225.879 224.836L226.084 225.264L226.459 225.554L227.682 223.971ZM218.211 204.224L220.015 203.359L219.887 203.093L219.688 202.876L218.211 204.224ZM213.98 199.59L212.163 200.425L212.293 200.708L212.503 200.938L213.98 199.59ZM210.554 192.134L212.372 191.299L212.257 191.049L212.079 190.84L210.554 192.134ZM204.5 185L202.927 186.235L202.95 186.265L202.975 186.294L204.5 185ZM196.651 175L198.224 173.765L198.102 173.61L197.952 173.481L196.651 175ZM179.725 160.5L181.026 158.981L179.612 157.77L178.303 159.093L179.725 160.5ZM174.284 166L172.755 167.289L174.166 168.963L175.706 167.407L174.284 166ZM169.649 160.5L171.179 159.211L169.482 157.198L167.998 159.372L169.649 160.5ZM157.358 178.5L158.264 180.283L158.721 180.051L159.01 179.628L157.358 178.5ZM148.5 183L147.594 181.217L146.997 181.52L146.703 182.121L148.5 183ZM142.85 194.552L144.079 196.13L144.443 195.846L144.646 195.431L142.85 194.552ZM132.5 202.612L131.271 201.034L130.92 201.308L130.718 201.704L132.5 202.612ZM12.8811 301.751L13.6648 303.591L14.8811 303.073V301.751H12.8811ZM2 306.386L0.447692 305.124L2.78373 308.226L2 306.386ZM12.8811 297.318L11.8521 295.603L10.8811 296.186V297.318H12.8811ZM31.0163 286.437L32.0452 288.152L32.3735 287.955L32.6059 287.651L31.0163 286.437ZM53.786 256.615V254.615H52.7967L52.1963 255.401L53.786 256.615ZM63.458 256.615V258.615H64.3879L64.9872 257.904L63.458 256.615ZM84.0112 232.233V230.233H83.0814L82.4821 230.944L84.0112 232.233ZM87.4368 232.233V234.233H88.2171L88.7912 233.704L87.4368 232.233ZM105.169 215.911H107.169V211.352L103.814 214.44L105.169 215.911ZM105.169 245.331H103.169V245.614L103.248 245.887L105.169 245.331ZM111.415 266.891L109.494 267.448L109.662 268.026L110.122 268.416L111.415 266.891ZM124.715 278.175L123.421 279.7L127.595 283.242L126.687 277.844L124.715 278.175ZM121.088 256.615L123.06 256.283L122.907 255.374L122.117 254.9L121.088 256.615ZM114.035 252.383L112.296 253.372L112.556 253.828L113.006 254.098L114.035 252.383ZM108.191 242.107L109.462 240.562L106.453 243.095L108.191 242.107ZM117.259 249.562L115.989 251.107L119.114 248.815L117.259 249.562ZM111.415 235.054L112.382 233.303L107.46 230.588L109.56 235.801L111.415 235.054ZM117.259 238.278L116.293 240.029L121.62 242.968L119.076 237.442L117.259 238.278ZM111.415 225.583V223.583H108.293L109.599 226.42L111.415 225.583ZM117.259 225.583L118.77 224.274L118.172 223.583H117.259V225.583ZM119.879 228.606L118.367 229.916L119.859 231.637L121.373 229.935L119.879 228.606ZM124 223.971L125.949 223.521L125.078 219.75L122.505 222.642L124 223.971ZM125.722 231.427L123.773 231.877L123.881 232.341L124.186 232.707L125.722 231.427ZM128.745 235.054L127.208 236.334L128.733 238.164L130.271 236.346L128.745 235.054ZM133.178 229.815L132.93 227.83L132.155 227.927L131.651 228.523L133.178 229.815ZM142.85 228.606H144.85V226.34L142.602 226.621L142.85 228.606ZM142.85 236.464H140.85V237.172L141.295 237.722L142.85 236.464ZM157.358 254.398L159.317 253.996L159.219 253.519L158.913 253.14L157.358 254.398ZM158.97 262.257L160.94 262.599L161.005 262.226L160.929 261.855L158.97 262.257ZM157.358 271.526L155.387 271.183L155.191 272.315L156.07 273.056L157.358 271.526ZM168.843 281.198L167.555 282.728L170.118 284.886L170.801 281.606L168.843 281.198ZM170.858 271.526L172.816 271.934L173.118 270.488L171.825 269.775L170.858 271.526ZM165.015 268.302L163.209 269.162L163.486 269.742L164.049 270.053L165.015 268.302ZM160.985 259.839L161.933 258.078L156.551 255.18L159.179 260.699L160.985 259.839ZM168.843 264.07L167.895 265.831L173.458 268.826L170.632 263.176L168.843 264.07ZM160.985 248.353H158.985V248.825L159.196 249.247L160.985 248.353ZM160.985 242.107L162.425 240.719L158.985 237.148V242.107H160.985ZM182.143 264.07L180.702 265.458L180.888 265.65L181.118 265.788L182.143 264.07ZM194.636 271.526L193.611 273.243L200.089 277.109L196.377 270.542L194.636 271.526ZM189.397 262.257V260.257H185.969L187.656 263.241L189.397 262.257ZM200.278 262.257L201.639 260.792L201.064 260.257H200.278V262.257ZM217.405 278.175L216.044 279.64L219.142 277.183L217.405 278.175ZM212.569 269.712L213.637 268.021L210.833 270.705L212.569 269.712ZM227.883 279.384L226.815 281.075L229.16 277.845L227.883 279.384ZM201.89 257.824L203.167 256.284L202.611 255.824H201.89V257.824ZM194.636 257.824L193.853 259.664L194.228 259.824H194.636V257.824ZM178.516 250.973L177.356 252.602L177.533 252.728L177.733 252.813L178.516 250.973ZM142.85 225.583L144.01 223.954L143.319 223.462L142.486 223.617L142.85 225.583ZM132.5 227.5L131.229 229.044L131.948 229.636L132.864 229.467L132.5 227.5ZM124 220.5L125.271 218.956L124.533 218.348L123.595 218.541L124 220.5ZM119.879 221.352L118.418 222.718L119.185 223.537L120.283 223.31L119.879 221.352ZM105.169 205.635L106.629 204.268L105.241 202.785L103.779 204.196L105.169 205.635ZM87.4368 222.762L87.8354 224.722L88.4068 224.606L88.8262 224.201L87.4368 222.762ZM82 223.868L81.6013 221.908L80.8626 222.059L80.4069 222.659L82 223.868ZM62.5 249.562L62.6558 251.556L63.5506 251.486L64.0931 250.771L62.5 249.562ZM50.5 250.5L50.3442 248.506L49.4457 248.576L48.9031 249.296L50.5 250.5ZM27.5 281L28.3759 282.798L28.8077 282.588L29.0969 282.204L27.5 281ZM8 290.5L7.12406 288.702L6 289.25V290.5H8ZM8 299L9.55231 300.261L10 299.71V299H8ZM161.992 209.665L160.052 210.15L161.363 215.395L163.781 210.559L161.992 209.665ZM160.985 205.635L159.321 204.525L158.83 205.261L159.045 206.12L160.985 205.635ZM163 207.65L164.789 208.544L164.897 208.328L164.95 208.093L163 207.65ZM164.007 203.217L165.036 201.502L162.669 200.081L162.057 202.773L164.007 203.217ZM168.037 205.635L167.008 207.35L168.812 208.432L169.802 206.576L168.037 205.635ZM169.649 202.612L171.414 203.553L171.649 203.112V202.612H169.649ZM169.649 200.799L171.518 200.084L167.649 200.799H169.649ZM172.269 207.65L170.401 208.364L172.068 212.724L174.075 208.51L172.269 207.65ZM174.284 203.418L176.09 204.278L176.655 203.091L175.789 202.101L174.284 203.418ZM171.463 200.194L169.495 200.552L169.594 201.095L169.958 201.511L171.463 200.194ZM170.657 195.761L172.625 195.403L172.574 195.122L172.446 194.867L170.657 195.761ZM169.649 193.746L167.752 194.379L167.797 194.513L167.861 194.641L169.649 193.746ZM168.037 188.91L169.935 188.278L169.837 187.984L169.655 187.734L168.037 188.91ZM164.813 184.477L166.431 183.301L164.83 181.099L163.207 183.285L164.813 184.477ZM160.179 190.724L158.573 189.532L158.179 190.063V190.724H160.179ZM160.179 194.552H158.179V195.209L158.569 195.738L160.179 194.552ZM163 198.381H165V197.723L164.61 197.194L163 198.381ZM163 202.612L164.664 203.722L165 203.218V202.612H163ZM178.516 214.299L180.085 215.539L180.516 214.994V214.299H178.516ZM175.493 218.128L173.923 216.889L173.051 217.994L173.797 219.188L175.493 218.128ZM178.516 208.053L176.727 207.158L176.516 207.581V208.053H178.516ZM179.725 205.635L181.686 205.242L180.543 199.527L177.936 204.74L179.725 205.635ZM180.531 209.665L178.569 210.057L178.609 210.253L178.686 210.438L180.531 209.665ZM183.15 215.911L181.306 216.685L181.524 217.205L181.981 217.534L183.15 215.911ZM188.188 219.538L190.045 218.796L189.828 218.255L189.356 217.915L188.188 219.538ZM190.606 225.583L188.749 226.326L188.97 226.88L189.459 227.222L190.606 225.583ZM196.651 229.815L198.199 228.548L198.024 228.335L197.798 228.176L196.651 229.815ZM200.278 234.248L199.22 235.945L201.826 232.981L200.278 234.248ZM186.374 225.583L187.432 223.886L186.946 223.583H186.374V225.583ZM182.143 225.583L181.033 227.247L181.537 227.583H182.143V225.583ZM179.725 223.971L180.834 222.307L180.76 222.258L180.682 222.216L179.725 223.971ZM177.508 222.762H175.508V223.95L176.55 224.518L177.508 222.762ZM177.508 221.352H179.508V220.778L179.204 220.292L177.508 221.352ZM227.682 212.889L225.83 212.135L229.275 214.098L227.682 212.889ZM232.115 202L230.916 200.399L230.472 200.732L230.263 201.246L232.115 202ZM232.115 207.045L231.313 205.213L230.836 205.422L230.522 205.836L232.115 207.045ZM238.563 204.224L239.365 206.056L239.828 205.854L240.139 205.456L238.563 204.224ZM247.228 193.142L248.094 191.339L246.644 190.642L245.652 191.91L247.228 193.142ZM257.706 198.179L259.14 196.785L258.892 196.531L258.572 196.377L257.706 198.179ZM271.609 212.486L273.295 211.41L273.186 211.238L273.044 211.092L271.609 212.486ZM277.654 221.956L275.969 223.032L276.232 223.444L276.655 223.689L277.654 221.956ZM282.893 224.979L284.47 223.749L284.231 223.441L283.893 223.246L282.893 224.979ZM290.752 235.054L289.175 236.284L289.219 236.341L289.268 236.394L290.752 235.054ZM309.492 255.809L308.007 257.149L308.155 257.313L308.336 257.441L309.492 255.809ZM324 266.085L322.844 267.717L325.616 264.906L324 266.085ZM314 252.383L315.616 251.204L315.568 251.139L315.516 251.078L314 252.383ZM297 232.636L298.516 231.331L298.493 231.305L298.47 231.279L297 232.636ZM287.327 222.158L288.796 220.801L288.559 220.545L288.249 220.383L287.327 222.158ZM282.289 219.538L280.491 220.415L280.781 221.008L281.366 221.313L282.289 219.538ZM278.259 211.277L280.056 210.4L279.956 210.194L279.812 210.017L278.259 211.277ZM263.549 193.142L265.103 191.882L264.8 191.509L264.362 191.314L263.549 193.142ZM247.228 185.888L248.04 184.06L246.601 183.42L245.641 184.669L247.228 185.888ZM238.563 197.172L239.762 198.773L239.982 198.608L240.149 198.39L238.563 197.172ZM252.265 219.135V217.135H250.511L250.282 218.874L252.265 219.135ZM251.258 226.792L249.275 226.531L248.383 233.311L252.788 228.081L251.258 226.792ZM257.706 219.135L259.236 220.424L262.005 217.135H257.706V219.135ZM268.818 236.248H266.818L270.68 236.979L268.818 236.248ZM268.818 233.024L267.344 231.672L266.818 232.246V233.024H268.818ZM271.035 230.606L272.896 231.337L269.561 229.254L271.035 230.606ZM250.683 203.202L252.486 202.336L252.374 202.103L252.207 201.906L250.683 203.202ZM247.258 199.172L247.598 197.201L242.161 196.263L245.734 200.467L247.258 199.172ZM260.355 223.352L258.552 224.217L259.097 225.352H260.355V223.352ZM263.982 223.352H265.982V221.352H263.982V223.352ZM263.982 225.971H261.982V227.971H263.982V225.971ZM268.818 225.971L270.347 224.682L269.748 223.971H268.818V225.971ZM274.259 232.419L276.136 233.111L276.538 232.019L275.788 231.13L274.259 232.419ZM272.848 236.248L270.972 235.557L270.534 236.744L271.42 237.648L272.848 236.248ZM282.722 246.323L281.294 247.723L281.923 248.365L282.822 248.321L282.722 246.323ZM286.752 246.122L287.682 244.351L287.198 244.097L286.652 244.124L286.752 246.122ZM294.812 250.353L293.882 252.124L294.319 252.353H294.812V250.353ZM296.626 250.353L298.154 249.063L297.554 248.353H296.626V250.353ZM304.283 259.421L302.755 260.711L303.354 261.421H304.283V259.421ZM306.499 259.421V261.421H311.76L307.828 257.926L306.499 259.421ZM304.686 257.809L303.193 259.14L303.27 259.227L303.357 259.303L304.686 257.809ZM286.349 237.255L284.787 238.505L284.821 238.547L284.857 238.587L286.349 237.255ZM278.289 227.18L279.851 225.931L279.615 225.636L279.288 225.448L278.289 227.18ZM273.05 224.158L271.364 225.234L271.627 225.646L272.05 225.89L273.05 224.158ZM267.005 214.687L268.691 213.611L268.585 213.445L268.449 213.303L267.005 214.687ZM253.101 200.179L254.545 198.795L254.09 198.32L253.441 198.208L253.101 200.179ZM265.967 259.033L266.96 257.296L265.886 256.683L264.858 257.369L265.967 259.033ZM263.549 260.645L261.949 259.445L264.659 262.309L263.549 260.645ZM268.788 260.645L267.796 262.381L270.788 264.091V260.645H268.788ZM268.788 257.421V255.421H266.788V257.421H268.788ZM270.199 257.421L271.729 256.132L271.129 255.421H270.199V257.421ZM273.423 261.249L271.893 262.537L272.04 262.712L272.223 262.849L273.423 261.249ZM279.871 266.085L278.671 267.685L281.511 264.94L279.871 266.085ZM271.005 253.391L272.645 252.245L271.869 251.135L270.55 251.443L271.005 253.391ZM264.96 254.801L264.505 252.853L262.269 253.375L263.093 255.519L264.96 254.801ZM265.967 257.421L267.567 258.621L268.231 257.735L267.834 256.703L265.967 257.421ZM290.752 263.869L292.134 262.423L291.885 262.185L291.57 262.044L290.752 263.869ZM284.908 261.249L285.727 259.424L283.737 262.871L284.908 261.249ZM295.387 268.302L294.768 270.204L296.769 266.856L295.387 268.302ZM287.327 265.682L285.662 264.573L284.199 266.769L286.708 267.584L287.327 265.682ZM288.536 263.869L290.2 264.978L291.268 263.375L289.707 262.247L288.536 263.869ZM179.523 164.931L181.452 164.405L180.614 161.332L178.21 163.422L179.523 164.931ZM174.888 168.961L173.576 167.452L170.679 169.971L174.403 170.902L174.888 168.961ZM180.127 167.148L178.198 167.674L178.407 168.44L179.084 168.855L180.127 167.148ZM183.754 169.364L185.734 169.082L185.601 168.149L184.797 167.658L183.754 169.364ZM184.762 176.417L182.782 176.7L182.859 177.24L183.2 177.666L184.762 176.417ZM186.374 178.432V180.432H190.535L187.936 177.183L186.374 178.432ZM184.157 178.432L182.368 179.326L182.921 180.432H184.157V178.432ZM183.15 176.417L184.939 175.523L184.807 175.259L184.605 175.045L183.15 176.417ZM176.5 169.364L177.955 167.992L177.554 167.566L176.985 167.424L176.5 169.364ZM187.18 188.507L185.991 190.115L192.143 194.663L189.004 187.686L187.18 188.507ZM182.545 185.082L183.734 183.473L180.756 185.976L182.545 185.082ZM185.366 184.477L186.476 182.813L180.688 178.955L183.542 185.298L185.366 184.477ZM190.807 188.104L192.448 186.961L192.231 186.65L191.916 186.44L190.807 188.104ZM195.441 194.754L193.801 195.897L193.978 196.152L194.224 196.34L195.441 194.754ZM204.106 201.403H206.106V200.417L205.324 199.817L204.106 201.403ZM204.106 211.075L202.785 212.577L206.106 215.497V211.075H204.106ZM192.419 200.799L190.501 201.367L190.665 201.92L191.098 202.301L192.419 200.799ZM190.807 195.358L192.724 194.79L192.556 194.221L192.104 193.836L190.807 195.358ZM185.366 190.724L183.577 191.618L183.759 191.982L184.069 192.246L185.366 190.724ZM133.48 206.541L124.412 214.4L127.032 217.423L136.1 209.564L133.48 206.541ZM145.019 197.227L133.534 206.496L136.046 209.609L147.531 200.34L145.019 197.227ZM149.531 188.001L144.494 197.875L148.057 199.693L153.094 189.819L149.531 188.001ZM156.175 182.864L150.13 187.297L152.496 190.523L158.541 186.09L156.175 182.864ZM168.029 166.327L155.738 183.304L158.978 185.65L171.269 168.673L168.029 166.327ZM172.604 171.324L171.596 167.042L167.703 167.958L168.71 172.24L172.604 171.324ZM172.269 169.782H170.657V173.782H172.269V169.782ZM169.835 181.325L174.066 172.66L170.472 170.905L166.24 179.569L169.835 181.325ZM173.848 184.66L169.616 179.219L166.459 181.675L170.69 187.115L173.848 184.66ZM173.137 182.839L171.122 184.249L173.416 187.526L175.431 186.115L173.137 182.839ZM177.574 184.2L175.358 182.79L173.21 186.164L175.427 187.575L177.574 184.2ZM175.897 190.093L178.113 187.07L174.888 184.705L172.671 187.727L175.897 190.093ZM176.284 193.746V188.91H172.284V193.746H176.284ZM175.324 190.517L173.108 192.129L175.46 195.364L177.677 193.752L175.324 190.517ZM174.501 187.701V192.134H178.501V187.701H174.501ZM184.259 190.47L177.61 186.037L175.391 189.365L182.041 193.798L184.259 190.47ZM185.15 197.172V192.134H181.15V197.172H185.15ZM181.579 200.487L184.198 198.875L182.102 195.468L179.482 197.08L181.579 200.487ZM183.901 197.667L181.08 196.861L179.981 200.707L182.802 201.513L183.901 197.667ZM185.352 202.612V199.59H181.352V202.612H185.352ZM184.302 199.251L182.085 201.064L184.618 204.16L186.835 202.347L184.302 199.251ZM186.709 204.682L187.515 201.257L183.621 200.341L182.815 203.766L186.709 204.682ZM185.48 201.629L183.868 202.435L185.657 206.013L187.269 205.207L185.48 201.629ZM190.05 207.324L188.237 202.689L184.512 204.147L186.325 208.782L190.05 207.324ZM188.247 213.591L190.06 208.755L186.315 207.35L184.501 212.187L188.247 213.591ZM195.513 215.121L187.251 211.091L185.497 214.686L193.759 218.716L195.513 215.121ZM191.667 212.273L192.675 217.311L196.597 216.527L195.589 211.489L191.667 212.273ZM199.239 214.463L195.007 210.433L192.249 213.33L196.48 217.36L199.239 214.463ZM195.272 211.535L195.877 216.17L199.843 215.653L199.238 211.018L195.272 211.535ZM202.982 212.624L198.348 209.602L196.163 212.952L200.797 215.974L202.982 212.624ZM206.167 214.102L202.741 212.49L201.038 216.109L204.464 217.721L206.167 214.102ZM211.995 219.965L206.756 214.524L203.875 217.299L209.114 222.739L211.995 219.965ZM215.788 227.752L212.363 220.498L208.746 222.206L212.171 229.46L215.788 227.752ZM219.204 229.287L214.972 226.869L212.988 230.342L217.219 232.76L219.204 229.287ZM224.22 230.718L218.78 229.106L217.643 232.942L223.084 234.554L224.22 230.718ZM237.461 245.639L225.169 231.333L222.135 233.939L234.427 248.246L237.461 245.639ZM233.944 244.323V246.943H237.944V244.323H233.944ZM239.281 243.464L236.662 242.456L235.226 246.19L237.845 247.197L239.281 243.464ZM244.565 252.461L240.334 244.401L236.792 246.26L241.024 254.32L244.565 252.461ZM252.47 258.248L244.007 251.8L241.583 254.981L250.046 261.43L252.47 258.248ZM243.928 252.046L249.57 260.912L252.945 258.765L247.303 249.899L243.928 252.046ZM249.331 250.594L246.51 249.184L244.721 252.761L247.542 254.172L249.331 250.594ZM252.774 251.456L248.946 250.449L247.928 254.317L251.756 255.325L252.774 251.456ZM249.297 248.745L250.304 253.783L254.226 252.998L253.219 247.961L249.297 248.745ZM262.644 253.54L252.367 246.689L250.148 250.017L260.425 256.868L262.644 253.54ZM253.269 249.767L260.12 256.618L262.948 253.79L256.097 246.939L253.269 249.767ZM246.602 245.837L253.654 250.068L255.712 246.638L248.66 242.407L246.602 245.837ZM244.473 239.332L245.682 244.571L249.579 243.672L248.37 238.433L244.473 239.332ZM241.685 238.129L245.312 240.547L247.531 237.218L243.904 234.8L241.685 238.129ZM239.433 235.514L241.247 237.731L244.343 235.198L242.529 232.981L239.433 235.514ZM226.459 225.554L239.758 235.831L242.204 232.665L228.905 222.389L226.459 225.554ZM216.408 205.089L225.879 224.836L229.485 223.106L220.015 203.359L216.408 205.089ZM212.503 200.938L216.734 205.573L219.688 202.876L215.457 198.241L212.503 200.938ZM208.737 192.969L212.163 200.425L215.797 198.755L212.372 191.299L208.737 192.969ZM202.975 186.294L209.029 193.428L212.079 190.84L206.025 183.706L202.975 186.294ZM195.077 176.235L202.927 186.235L206.073 183.765L198.224 173.765L195.077 176.235ZM178.423 162.019L195.35 176.519L197.952 173.481L181.026 158.981L178.423 162.019ZM175.706 167.407L181.146 161.907L178.303 159.093L172.862 164.593L175.706 167.407ZM168.12 161.789L172.755 167.289L175.813 164.711L171.179 159.211L168.12 161.789ZM159.01 179.628L171.301 161.628L167.998 159.372L155.706 177.372L159.01 179.628ZM149.406 184.783L158.264 180.283L156.452 176.717L147.594 181.217L149.406 184.783ZM144.646 195.431L150.297 183.879L146.703 182.121L141.053 193.673L144.646 195.431ZM133.729 204.19L144.079 196.13L141.621 192.974L131.271 201.034L133.729 204.19ZM127.504 216.819L134.282 203.52L130.718 201.704L123.94 215.003L127.504 216.819ZM12.0974 299.911L1.21627 304.546L2.78373 308.226L13.6648 303.591L12.0974 299.911ZM10.8811 297.318V301.751H14.8811V297.318H10.8811ZM29.9873 284.722L11.8521 295.603L13.9101 299.033L32.0452 288.152L29.9873 284.722ZM52.1963 255.401L29.4266 285.223L32.6059 287.651L55.3756 257.828L52.1963 255.401ZM63.458 254.615H53.786V258.615H63.458V254.615ZM82.4821 230.944L61.9289 255.326L64.9872 257.904L85.5404 233.522L82.4821 230.944ZM87.4368 230.233H84.0112V234.233H87.4368V230.233ZM103.814 214.44L86.0823 230.761L88.7912 233.704L106.523 217.383L103.814 214.44ZM107.169 245.331V215.911H103.169V245.331H107.169ZM113.336 266.335L107.09 244.774L103.248 245.887L109.494 267.448L113.336 266.335ZM126.009 276.65L112.709 265.366L110.122 268.416L123.421 279.7L126.009 276.65ZM119.115 256.946L122.742 278.507L126.687 277.844L123.06 256.283L119.115 256.946ZM113.006 254.098L120.059 258.33L122.117 254.9L115.064 250.668L113.006 254.098ZM106.453 243.095L112.296 253.372L115.774 251.394L109.93 241.118L106.453 243.095ZM118.529 248.017L109.462 240.562L106.921 243.651L115.989 251.107L118.529 248.017ZM109.56 235.801L115.404 250.309L119.114 248.815L113.271 234.307L109.56 235.801ZM118.225 236.527L112.382 233.303L110.449 236.805L116.293 240.029L118.225 236.527ZM109.599 226.42L115.442 239.114L119.076 237.442L113.232 224.747L109.599 226.42ZM114.035 223.583H111.415V227.583H114.035V223.583ZM117.259 223.583H114.035V227.583H117.259V223.583ZM121.39 227.296L118.77 224.274L115.748 226.893L118.367 229.916L121.39 227.296ZM122.505 222.642L118.384 227.277L121.373 229.935L125.495 225.3L122.505 222.642ZM127.671 230.977L125.949 223.521L122.051 224.421L123.773 231.877L127.671 230.977ZM130.281 233.774L127.259 230.147L124.186 232.707L127.208 236.334L130.281 233.774ZM131.651 228.523L127.218 233.762L130.271 236.346L134.704 231.107L131.651 228.523ZM142.602 226.621L132.93 227.83L133.426 231.799L143.098 230.59L142.602 226.621ZM144.85 236.464V228.606H140.85V236.464H144.85ZM158.913 253.14L144.405 235.207L141.295 237.722L155.803 255.656L158.913 253.14ZM160.929 261.855L159.317 253.996L155.399 254.8L157.011 262.659L160.929 261.855ZM159.328 271.868L160.94 262.599L156.999 261.914L155.387 271.183L159.328 271.868ZM170.132 279.668L158.646 269.996L156.07 273.056L167.555 282.728L170.132 279.668ZM168.901 271.118L166.885 280.79L170.801 281.606L172.816 271.934L168.901 271.118ZM164.049 270.053L169.892 273.277L171.825 269.775L165.981 266.551L164.049 270.053ZM159.179 260.699L163.209 269.162L166.821 267.442L162.791 258.979L159.179 260.699ZM169.792 262.309L161.933 258.078L160.037 261.6L167.895 265.831L169.792 262.309ZM159.196 249.247L167.055 264.965L170.632 263.176L162.774 247.459L159.196 249.247ZM158.985 242.107V248.353H162.985V242.107H158.985ZM183.583 262.683L162.425 240.719L159.544 243.494L180.702 265.458L183.583 262.683ZM195.661 269.808L183.167 262.353L181.118 265.788L193.611 273.243L195.661 269.808ZM187.656 263.241L192.895 272.51L196.377 270.542L191.138 261.273L187.656 263.241ZM196.651 260.257H189.397V264.257H196.651V260.257ZM200.278 260.257H196.651V264.257H200.278V260.257ZM218.767 276.71L201.639 260.792L198.916 263.722L216.044 279.64L218.767 276.71ZM210.833 270.705L215.669 279.168L219.142 277.183L214.306 268.72L210.833 270.705ZM228.951 277.693L213.637 268.021L211.501 271.403L226.815 281.075L228.951 277.693ZM200.613 259.363L226.607 280.924L229.16 277.845L203.167 256.284L200.613 259.363ZM194.636 259.824H201.89V255.824H194.636V259.824ZM177.733 252.813L193.853 259.664L195.418 255.983L179.298 249.132L177.733 252.813ZM141.69 227.213L177.356 252.602L179.675 249.343L144.01 223.954L141.69 227.213ZM132.864 229.467L143.214 227.55L142.486 223.617L132.136 225.533L132.864 229.467ZM122.729 222.044L131.229 229.044L133.771 225.956L125.271 218.956L122.729 222.044ZM120.283 223.31L124.405 222.459L123.595 218.541L119.474 219.393L120.283 223.31ZM103.709 207.001L118.418 222.718L121.339 219.985L106.629 204.268L103.709 207.001ZM88.8262 224.201L106.558 207.073L103.779 204.196L86.0473 221.324L88.8262 224.201ZM82.3987 225.828L87.8354 224.722L87.0381 220.802L81.6013 221.908L82.3987 225.828ZM64.0931 250.771L83.5931 225.077L80.4069 222.659L60.9069 248.353L64.0931 250.771ZM50.6558 252.494L62.6558 251.556L62.3442 247.568L50.3442 248.506L50.6558 252.494ZM29.0969 282.204L52.0969 251.704L48.9031 249.296L25.9031 279.796L29.0969 282.204ZM8.87594 292.298L28.3759 282.798L26.6241 279.202L7.12406 288.702L8.87594 292.298ZM10 299V290.5H6V299H10ZM3.55231 307.647L9.55231 300.261L6.44769 297.739L0.447692 305.124L3.55231 307.647ZM163.933 209.18L162.925 205.15L159.045 206.12L160.052 210.15L163.933 209.18ZM161.211 206.755L160.204 208.77L163.781 210.559L164.789 208.544L161.211 206.755ZM162.057 202.773L161.05 207.206L164.95 208.093L165.958 203.66L162.057 202.773ZM169.066 203.92L165.036 201.502L162.978 204.932L167.008 207.35L169.066 203.92ZM167.885 201.671L166.273 204.694L169.802 206.576L171.414 203.553L167.885 201.671ZM167.649 200.799V202.612H171.649V200.799H167.649ZM174.137 206.935L171.518 200.084L167.781 201.513L170.401 208.364L174.137 206.935ZM172.478 202.558L170.463 206.79L174.075 208.51L176.09 204.278L172.478 202.558ZM169.958 201.511L172.779 204.735L175.789 202.101L172.968 198.877L169.958 201.511ZM168.689 196.119L169.495 200.552L173.431 199.836L172.625 195.403L168.689 196.119ZM167.861 194.641L168.868 196.656L172.446 194.867L171.438 192.852L167.861 194.641ZM166.14 189.543L167.752 194.379L171.547 193.114L169.935 188.278L166.14 189.543ZM163.196 185.653L166.42 190.086L169.655 187.734L166.431 183.301L163.196 185.653ZM161.785 191.915L166.42 185.669L163.207 183.285L158.573 189.532L161.785 191.915ZM162.179 194.552V190.724H158.179V194.552H162.179ZM164.61 197.194L161.789 193.366L158.569 195.738L161.39 199.567L164.61 197.194ZM165 202.612V198.381H161V202.612H165ZM162.649 206.744L164.664 203.722L161.336 201.503L159.321 204.525L162.649 206.744ZM176.946 213.06L173.923 216.889L177.063 219.367L180.085 215.539L176.946 213.06ZM176.516 208.053V214.299H180.516V208.053H176.516ZM177.936 204.74L176.727 207.158L180.304 208.947L181.513 206.529L177.936 204.74ZM182.492 209.272L181.686 205.242L177.763 206.027L178.569 210.057L182.492 209.272ZM184.994 215.138L182.375 208.891L178.686 210.438L181.306 216.685L184.994 215.138ZM189.356 217.915L184.319 214.288L181.981 217.534L187.019 221.161L189.356 217.915ZM192.463 224.841L190.045 218.796L186.331 220.281L188.749 226.326L192.463 224.841ZM197.798 228.176L191.753 223.945L189.459 227.222L195.504 231.453L197.798 228.176ZM201.826 232.981L198.199 228.548L195.103 231.081L198.73 235.514L201.826 232.981ZM185.316 227.281L199.22 235.945L201.336 232.551L187.432 223.886L185.316 227.281ZM182.143 227.583H186.374V223.583H182.143V227.583ZM178.615 225.635L181.033 227.247L183.252 223.919L180.834 222.307L178.615 225.635ZM176.55 224.518L178.767 225.727L180.682 222.216L178.466 221.007L176.55 224.518ZM175.508 221.352V222.762H179.508V221.352H175.508ZM173.797 219.188L175.812 222.412L179.204 220.292L177.189 217.068L173.797 219.188ZM229.534 213.643L233.967 202.754L230.263 201.246L225.83 212.135L229.534 213.643ZM230.522 205.836L226.089 211.68L229.275 214.098L233.708 208.254L230.522 205.836ZM237.761 202.392L231.313 205.213L232.917 208.878L239.365 206.056L237.761 202.392ZM245.652 191.91L236.987 202.992L240.139 205.456L248.803 194.373L245.652 191.91ZM258.572 196.377L248.094 191.339L246.361 194.944L256.839 199.982L258.572 196.377ZM273.044 211.092L259.14 196.785L256.271 199.573L270.175 213.88L273.044 211.092ZM279.34 220.88L273.295 211.41L269.924 213.562L275.969 223.032L279.34 220.88ZM283.893 223.246L278.654 220.224L276.655 223.689L281.894 226.711L283.893 223.246ZM292.329 233.824L284.47 223.749L281.316 226.209L289.175 236.284L292.329 233.824ZM310.976 254.468L292.236 233.714L289.268 236.394L308.007 257.149L310.976 254.468ZM325.156 264.453L310.648 254.177L308.336 257.441L322.844 267.717L325.156 264.453ZM312.384 253.562L322.384 267.264L325.616 264.906L315.616 251.204L312.384 253.562ZM295.484 233.941L312.484 253.688L315.516 251.078L298.516 231.331L295.484 233.941ZM285.857 223.515L295.53 233.993L298.47 231.279L288.796 220.801L285.857 223.515ZM281.366 221.313L286.404 223.932L288.249 220.383L283.212 217.764L281.366 221.313ZM276.461 212.154L280.491 220.415L284.087 218.661L280.056 210.4L276.461 212.154ZM261.996 194.401L276.706 212.537L279.812 210.017L265.103 191.882L261.996 194.401ZM246.415 187.715L262.737 194.969L264.362 191.314L248.04 184.06L246.415 187.715ZM240.149 198.39L248.814 187.106L245.641 184.669L236.977 195.954L240.149 198.39ZM233.314 203.601L239.762 198.773L237.364 195.571L230.916 200.399L233.314 203.601ZM250.282 218.874L249.275 226.531L253.241 227.053L254.248 219.396L250.282 218.874ZM257.706 217.135H252.265V221.135H257.706V217.135ZM252.788 228.081L259.236 220.424L256.176 217.847L249.728 225.504L252.788 228.081ZM270.818 236.248V233.024H266.818V236.248H270.818ZM269.173 229.875L266.957 235.517L270.68 236.979L272.896 231.337L269.173 229.875ZM270.293 234.375L272.509 231.957L269.561 229.254L267.344 231.672L270.293 234.375ZM252.207 201.906L248.782 197.876L245.734 200.467L249.159 204.497L252.207 201.906ZM262.158 222.486L252.486 202.336L248.88 204.067L258.552 224.217L262.158 222.486ZM263.982 221.352H260.355V225.352H263.982V221.352ZM265.982 225.971V223.352H261.982V225.971H265.982ZM268.818 223.971H263.982V227.971H268.818V223.971ZM275.788 231.13L270.347 224.682L267.29 227.261L272.73 233.709L275.788 231.13ZM274.725 236.939L276.136 233.111L272.382 231.728L270.972 235.557L274.725 236.939ZM284.15 244.923L274.277 234.848L271.42 237.648L281.294 247.723L284.15 244.923ZM286.652 244.124L282.622 244.326L282.822 248.321L286.852 248.119L286.652 244.124ZM295.742 248.582L287.682 244.351L285.822 247.892L293.882 252.124L295.742 248.582ZM296.626 248.353H294.812V252.353H296.626V248.353ZM305.811 258.13L298.154 249.063L295.098 251.643L302.755 260.711L305.811 258.13ZM306.499 257.421H304.283V261.421H306.499V257.421ZM303.357 259.303L305.17 260.915L307.828 257.926L306.014 256.314L303.357 259.303ZM284.857 238.587L303.193 259.14L306.178 256.477L287.841 235.924L284.857 238.587ZM276.727 228.43L284.787 238.505L287.911 236.006L279.851 225.931L276.727 228.43ZM272.05 225.89L277.29 228.913L279.288 225.448L274.049 222.425L272.05 225.89ZM265.319 215.763L271.364 225.234L274.736 223.082L268.691 213.611L265.319 215.763ZM251.657 201.563L265.561 216.071L268.449 213.303L254.545 198.795L251.657 201.563ZM246.918 201.143L252.761 202.15L253.441 198.208L247.598 197.201L246.918 201.143ZM264.858 257.369L262.44 258.981L264.659 262.309L267.077 260.697L264.858 257.369ZM269.781 258.908L266.96 257.296L264.975 260.769L267.796 262.381L269.781 258.908ZM266.788 257.421V260.645H270.788V257.421H266.788ZM270.199 255.421H268.788V259.421H270.199V255.421ZM274.953 259.961L271.729 256.132L268.669 258.709L271.893 262.537L274.953 259.961ZM281.071 264.485L274.623 259.649L272.223 262.849L278.671 267.685L281.071 264.485ZM269.365 254.536L278.231 267.23L281.511 264.94L272.645 252.245L269.365 254.536ZM265.414 256.749L271.459 255.338L270.55 251.443L264.505 252.853L265.414 256.749ZM267.834 256.703L266.827 254.083L263.093 255.519L264.101 258.139L267.834 256.703ZM265.149 261.845L267.567 258.621L264.367 256.221L261.949 259.445L265.149 261.845ZM291.57 262.044L285.727 259.424L284.09 263.074L289.934 265.694L291.57 262.044ZM296.769 266.856L292.134 262.423L289.37 265.314L294.004 269.747L296.769 266.856ZM286.708 267.584L294.768 270.204L296.005 266.4L287.945 263.78L286.708 267.584ZM286.871 262.759L285.662 264.573L288.991 266.792L290.2 264.978L286.871 262.759ZM283.737 262.871L287.365 265.49L289.707 262.247L286.079 259.628L283.737 262.871ZM178.21 163.422L173.576 167.452L176.201 170.471L180.835 166.441L178.21 163.422ZM182.057 166.622L181.452 164.405L177.593 165.458L178.198 167.674L182.057 166.622ZM184.797 167.658L181.17 165.441L179.084 168.855L182.711 171.071L184.797 167.658ZM186.742 176.134L185.734 169.082L181.774 169.647L182.782 176.7L186.742 176.134ZM187.936 177.183L186.324 175.168L183.2 177.666L184.812 179.681L187.936 177.183ZM184.157 180.432H186.374V176.432H184.157V180.432ZM181.361 177.311L182.368 179.326L185.946 177.538L184.939 175.523L181.361 177.311ZM175.045 170.737L181.695 177.789L184.605 175.045L177.955 167.992L175.045 170.737ZM174.403 170.902L176.015 171.305L176.985 167.424L175.373 167.021L174.403 170.902ZM188.369 186.899L183.734 183.473L181.357 186.69L185.991 190.115L188.369 186.899ZM183.542 185.298L185.356 189.328L189.004 187.686L187.19 183.656L183.542 185.298ZM191.916 186.44L186.476 182.813L184.257 186.141L189.697 189.768L191.916 186.44ZM197.082 193.61L192.448 186.961L189.166 189.248L193.801 195.897L197.082 193.61ZM205.324 199.817L196.659 193.167L194.224 196.34L202.888 202.99L205.324 199.817ZM206.106 211.075V201.403H202.106V211.075H206.106ZM191.098 202.301L202.785 212.577L205.427 209.573L193.74 199.297L191.098 202.301ZM188.889 195.926L190.501 201.367L194.336 200.231L192.724 194.79L188.889 195.926ZM184.069 192.246L189.51 196.881L192.104 193.836L186.663 189.201L184.069 192.246ZM180.756 185.976L183.577 191.618L187.155 189.829L184.334 184.187L180.756 185.976Z" fill="#ECBD56"/>
<rect x="244" y="30" width="40" height="7" rx="3.5" fill="#ECBD56"/>
<rect x="244" y="43" width="40" height="7" rx="3.5" fill="#ECBD56"/>
<rect x="244" y="56" width="40" height="7" rx="3.5" fill="#ECBD56"/>
<rect x="244" y="69" width="40" height="7" rx="3.5" fill="#ECBD56"/>
<rect x="244" y="82" width="40" height="7" rx="3.5" fill="#ECBD56"/>
<rect x="244" y="95" width="40" height="7" rx="3.5" fill="#ECBD56"/>
<rect x="244" y="108" width="40" height="7" rx="3.5" fill="#ECBD56"/>
<mask id="path-14-outside-1_575_111" maskUnits="userSpaceOnUse" x="147.156" y="24.125" width="45" height="45" fill="black">
<rect fill="white" x="147.156" y="24.125" width="45" height="45"/>
<path fill-rule="evenodd" clip-rule="evenodd" d="M169.571 66.9543C180.846 66.9543 189.986 57.8143 189.986 46.5396C189.986 35.2649 180.846 26.125 169.571 26.125C158.296 26.125 149.156 35.2649 149.156 46.5396C149.156 57.8143 158.296 66.9543 169.571 66.9543ZM169.571 58.4482C176.148 58.4482 181.479 53.1166 181.479 46.5396C181.479 39.9627 176.148 34.6311 169.571 34.6311C162.994 34.6311 157.662 39.9627 157.662 46.5396C157.662 53.1166 162.994 58.4482 169.571 58.4482Z"/>
</mask>
<path fill-rule="evenodd" clip-rule="evenodd" d="M169.571 66.9543C180.846 66.9543 189.986 57.8143 189.986 46.5396C189.986 35.2649 180.846 26.125 169.571 26.125C158.296 26.125 149.156 35.2649 149.156 46.5396C149.156 57.8143 158.296 66.9543 169.571 66.9543ZM169.571 58.4482C176.148 58.4482 181.479 53.1166 181.479 46.5396C181.479 39.9627 176.148 34.6311 169.571 34.6311C162.994 34.6311 157.662 39.9627 157.662 46.5396C157.662 53.1166 162.994 58.4482 169.571 58.4482Z" fill="#ECBD56"/>
<path d="M187.986 46.5396C187.986 56.7098 179.741 64.9543 169.571 64.9543V68.9543C181.95 68.9543 191.986 58.9189 191.986 46.5396H187.986ZM169.571 28.125C179.741 28.125 187.986 36.3695 187.986 46.5396H191.986C191.986 34.1604 181.95 24.125 169.571 24.125V28.125ZM151.156 46.5396C151.156 36.3695 159.401 28.125 169.571 28.125V24.125C157.192 24.125 147.156 34.1604 147.156 46.5396H151.156ZM169.571 64.9543C159.401 64.9543 151.156 56.7098 151.156 46.5396H147.156C147.156 58.9189 157.192 68.9543 169.571 68.9543V64.9543ZM179.479 46.5396C179.479 52.012 175.043 56.4482 169.571 56.4482V60.4482C177.252 60.4482 183.479 54.2211 183.479 46.5396H179.479ZM169.571 36.6311C175.043 36.6311 179.479 41.0673 179.479 46.5396H183.479C183.479 38.8582 177.252 32.6311 169.571 32.6311V36.6311ZM159.662 46.5396C159.662 41.0673 164.099 36.6311 169.571 36.6311V32.6311C161.889 32.6311 155.662 38.8582 155.662 46.5396H159.662ZM169.571 56.4482C164.099 56.4482 159.662 52.012 159.662 46.5396H155.662C155.662 54.2211 161.889 60.4482 169.571 60.4482V56.4482Z" fill="#ECBD56" mask="url(#path-14-outside-1_575_111)"/>
<mask id="path-16-outside-2_575_111" maskUnits="userSpaceOnUse" x="193.941" y="24.125" width="45" height="45" fill="black">
<rect fill="white" x="193.941" y="24.125" width="45" height="45"/>
<path fill-rule="evenodd" clip-rule="evenodd" d="M216.356 66.9543C227.631 66.9543 236.771 57.8143 236.771 46.5396C236.771 35.2649 227.631 26.125 216.356 26.125C205.081 26.125 195.941 35.2649 195.941 46.5396C195.941 57.8143 205.081 66.9543 216.356 66.9543ZM216.356 58.4482C222.933 58.4482 228.265 53.1166 228.265 46.5396C228.265 39.9627 222.933 34.6311 216.356 34.6311C209.779 34.6311 204.448 39.9627 204.448 46.5396C204.448 53.1166 209.779 58.4482 216.356 58.4482Z"/>
</mask>
<path fill-rule="evenodd" clip-rule="evenodd" d="M216.356 66.9543C227.631 66.9543 236.771 57.8143 236.771 46.5396C236.771 35.2649 227.631 26.125 216.356 26.125C205.081 26.125 195.941 35.2649 195.941 46.5396C195.941 57.8143 205.081 66.9543 216.356 66.9543ZM216.356 58.4482C222.933 58.4482 228.265 53.1166 228.265 46.5396C228.265 39.9627 222.933 34.6311 216.356 34.6311C209.779 34.6311 204.448 39.9627 204.448 46.5396C204.448 53.1166 209.779 58.4482 216.356 58.4482Z" fill="#ECBD56"/>
<path d="M234.771 46.5396C234.771 56.7098 226.526 64.9543 216.356 64.9543V68.9543C228.735 68.9543 238.771 58.9189 238.771 46.5396H234.771ZM216.356 28.125C226.526 28.125 234.771 36.3695 234.771 46.5396H238.771C238.771 34.1604 228.735 24.125 216.356 24.125V28.125ZM197.941 46.5396C197.941 36.3695 206.186 28.125 216.356 28.125V24.125C203.977 24.125 193.941 34.1604 193.941 46.5396H197.941ZM216.356 64.9543C206.186 64.9543 197.941 56.7098 197.941 46.5396H193.941C193.941 58.9189 203.977 68.9543 216.356 68.9543V64.9543ZM226.265 46.5396C226.265 52.012 221.828 56.4482 216.356 56.4482V60.4482C224.038 60.4482 230.265 54.2211 230.265 46.5396H226.265ZM216.356 36.6311C221.828 36.6311 226.265 41.0673 226.265 46.5396H230.265C230.265 38.8582 224.038 32.6311 216.356 32.6311V36.6311ZM206.448 46.5396C206.448 41.0673 210.884 36.6311 216.356 36.6311V32.6311C208.675 32.6311 202.448 38.8582 202.448 46.5396H206.448ZM216.356 56.4482C210.884 56.4482 206.448 52.012 206.448 46.5396H202.448C202.448 54.2211 208.675 60.4482 216.356 60.4482V56.4482Z" fill="#ECBD56" mask="url(#path-16-outside-2_575_111)"/>
</svg>
