<svg width="31" height="31" viewBox="0 0 31 31" fill="none" xmlns="http://www.w3.org/2000/svg">
<path d="M21.4432 0.108398H8.8732C3.4132 0.108398 0.158203 3.3634 0.158203 8.8234V21.3784C0.158203 26.8534 3.4132 30.1084 8.8732 30.1084H21.4282C26.8882 30.1084 30.1432 26.8534 30.1432 21.3934V8.8234C30.1582 3.3634 26.9032 0.108398 21.4432 0.108398ZM15.1582 20.9284C11.9482 20.9284 9.3382 18.3184 9.3382 15.1084C9.3382 11.8984 11.9482 9.2884 15.1582 9.2884C18.3682 9.2884 20.9782 11.8984 20.9782 15.1084C20.9782 18.3184 18.3682 20.9284 15.1582 20.9284ZM24.0382 7.4284C23.9632 7.6084 23.8582 7.7734 23.7232 7.9234C23.5732 8.0584 23.4082 8.1634 23.2282 8.2384C23.0482 8.3134 22.8532 8.3584 22.6582 8.3584C22.2532 8.3584 21.8782 8.2084 21.5932 7.9234C21.4582 7.7734 21.3532 7.6084 21.2782 7.4284C21.2032 7.2484 21.1582 7.0534 21.1582 6.8584C21.1582 6.6634 21.2032 6.4684 21.2782 6.2884C21.3532 6.0934 21.4582 5.9434 21.5932 5.7934C21.9382 5.4484 22.4632 5.2834 22.9432 5.3884C23.0482 5.4034 23.1382 5.4334 23.2282 5.4784C23.3182 5.5084 23.4082 5.5534 23.4982 5.6134C23.5732 5.6584 23.6482 5.7334 23.7232 5.7934C23.8582 5.9434 23.9632 6.0934 24.0382 6.2884C24.1132 6.4684 24.1582 6.6634 24.1582 6.8584C24.1582 7.0534 24.1132 7.2484 24.0382 7.4284Z" fill="#D1D1D1"/>
</svg>
