<svg width="1349" height="393" viewBox="0 0 1349 393" fill="none" xmlns="http://www.w3.org/2000/svg">
<path d="M177.354 60.5508L167.146 63.5279L179.48 94.5752V122.22H190.113V106.058C183.733 97.9776 198.194 97.9776 192.239 106.058V122.22H202.872V94.5752L214.781 63.5279L204.999 60.5508C201.596 75.5215 194.224 90.6057 190.964 96.2764C184.159 85.3886 179.055 67.9227 177.354 60.5508Z" fill="url(#paint0_linear_398_81)"/>
<path d="M34.8766 263.422L31.0488 113.714C38.3498 114.639 47.7788 115.627 58.9909 116.564C62.5391 93.8278 58.0538 86.1856 55.2912 85.2189L47.6357 82.2417C51.3217 60.2675 59.119 14.5329 60.8202 7.38778C62.5214 0.242653 68.0504 -0.409482 70.6022 0.157592L98.247 6.11186C91.3057 24.9528 85.1403 87.0641 82.7146 118.277C92.1598 118.86 102.385 119.381 113.269 119.799L118.236 16.3194C118.236 8.23863 128.444 8.23863 128.444 16.3194L133.441 120.43C176.201 121.464 226.881 120.782 279.417 116.374L278.576 21.4231H236.897C236.897 19.7219 239.363 15.9792 249.23 14.6182C259.097 13.2572 277.159 12.917 284.956 12.917C287.791 12.7752 293.377 13.6825 293.037 18.446C292.705 23.0901 292.885 83.3633 293.026 115.152C297.699 114.703 302.382 114.225 307.072 113.714V241.306C307.072 214.674 305.456 128.48 298.991 122.645C243.701 125.623 114.919 129.791 42.1068 122.645C34.8766 139.233 34.8766 234.501 34.8766 263.422Z" fill="url(#paint1_linear_398_81)"/>
<path d="M140.352 11.6411C135.674 8.66393 132.271 13.3423 135.249 16.3194L152.261 31.2051L157.364 26.1014L140.352 11.6411Z" fill="url(#paint2_linear_398_81)"/>
<path d="M34.8751 314.883V281.71L29.7715 319.562C68.5593 332.491 139.217 370.031 169.697 387.185C197.937 368.812 273.897 334.447 308.346 319.562L304.944 258.743V314.883C246.762 338.36 190.537 368.614 169.697 380.806C147.156 368.047 86.7624 335.298 34.8751 314.883Z" fill="url(#paint3_linear_398_81)"/>
<path fill-rule="evenodd" clip-rule="evenodd" d="M123.722 216.538L132.79 205.053L144.275 195.784L149.313 185.91L155.358 181.477L168.657 164.148V168.782H170.269L166.037 177.447L170.269 182.888L172.284 181.477L174.501 182.888L172.284 185.91V190.746L174.501 189.134V184.701L181.15 189.134V194.172L178.531 195.784L181.352 196.59V199.612L183.568 197.799L182.762 201.224L184.374 200.418L186.188 205.053L184.374 209.889L192.636 213.919L191.628 208.881L195.86 212.911L195.255 208.277L199.89 211.299L203.315 212.911L208.554 218.352L211.98 225.606L216.211 228.024L221.652 229.636L233.944 243.943V241.323L236.563 242.331L240.795 250.391L249.258 256.839L243.616 247.973L246.437 249.383L250.265 250.391L249.258 245.353L259.534 252.204L252.683 245.353L245.631 241.122L244.422 235.882L240.795 233.464L238.981 231.248L225.682 220.971L216.211 201.224L211.98 196.59L208.554 189.134L199.89 182.888L189.815 168.782L177.5 160L171.5 165L168.5 161L154.5 180L148 184.5L143 194.5L132 204L123.722 216.538ZM0 303.386L10.8811 298.751V294.318L29.0163 283.437L51.786 253.615H61.458L82.0112 229.233H85.4368L103.169 212.911V242.331L109.415 263.891L122.715 275.175L119.088 253.615L112.035 249.383L106.191 239.107L115.259 246.562L109.415 232.054L115.259 235.278L109.415 222.583H112.035H115.259L117.879 225.606L122 220.971L123.722 228.427L126.745 232.054L131.178 226.815L140.85 225.606V233.464L155.358 251.398L156.97 259.257L155.358 268.526L166.843 278.198L168.858 268.526L163.015 265.302L158.985 256.839L166.843 261.07L158.985 245.353V239.107L180.143 261.07L192.636 268.526L187.397 259.257H194.651H198.278L215.405 275.175L210.569 266.712L225.883 276.384L199.89 254.824H192.636L176.516 247.973L140.85 222.583L130.5 224.5L122 217.5L117.476 221.777L103.169 208L85.4368 224.5L80 225.606L61.458 250.5L49 251.398L27.5 281.5L8.5 294.318V298.751L0 303.386ZM158.985 202.635L159.992 206.665L161 204.65L162.007 200.217L166.037 202.635L167.649 199.612V197.799L170.269 204.65L172.284 200.418L169.463 197.194L168.657 192.761L167.649 190.746L166.037 185.91L162.813 181.477L158.179 187.724V191.552L161 195.381V199.612L158.985 202.635ZM173.493 215.128L176.516 211.299V205.053L177.725 202.635L178.531 206.665L181.15 212.911L186.188 216.538L188.606 222.583L194.651 226.815L198.278 231.248L184.374 222.583H180.143L177.725 220.971L175.508 219.762V218.352L173.493 215.128ZM230.115 202L222.861 212.911L230.115 204.045L236.563 201.224L245.228 190.142L255.706 195.179L269.609 209.486L275.654 218.956L280.893 221.979L288.752 232.054L307.492 252.809L326.634 265.302L309 252L290.205 231.248L282 220.5L277 218L271.5 208.5L257.5 193.5L245 187.5L236 199L230.115 202ZM249.258 223.792L250.265 216.135H255.706L249.258 223.792ZM270.818 231.248L273.035 225.606L270.818 228.024V231.248ZM249.258 194.172L252.683 198.202L262.355 218.352H265.982V220.971H270.818L276.259 227.419L274.848 231.248L284.722 241.323L288.752 241.122L296.812 245.353H298.626L306.283 254.421H308.499L306.686 252.809L288.349 232.255L280.289 222.18L275.05 219.158L269.005 209.687L255.101 195.179L249.258 194.172ZM261.549 257.645L263.967 256.033L266.788 257.645V254.421H268.199L271.423 258.249L277.871 263.085L269.005 250.391L262.96 251.801L263.967 254.421L261.549 257.645ZM282.908 258.249L288.752 260.869L293.387 265.302L285.327 262.682L286.536 260.869L282.908 258.249ZM172.888 165.961L177.523 161.931L178.127 164.148L181.754 166.364L182.762 173.417L184.374 175.432H182.157L181.15 173.417L174.5 166.364L172.888 165.961ZM180.545 182.082L185.18 185.507L183.366 181.477L188.807 185.104L193.441 191.754L202.106 198.403V208.075L190.419 197.799L188.807 192.358L183.366 187.724L180.545 182.082Z" fill="url(#paint4_linear_398_81)"/>
<rect x="240.723" y="23.5498" width="39.9787" height="1.70122" rx="0.85061" fill="url(#paint5_linear_398_81)"/>
<rect x="240.723" y="36.7344" width="39.9787" height="1.70122" rx="0.85061" fill="url(#paint6_linear_398_81)"/>
<rect x="240.723" y="50.3438" width="39.9787" height="1.70122" rx="0.85061" fill="url(#paint7_linear_398_81)"/>
<rect x="240.723" y="63.9541" width="39.9787" height="1.70122" rx="0.85061" fill="url(#paint8_linear_398_81)"/>
<rect x="240.723" y="77.5635" width="39.9787" height="1.70122" rx="0.85061" fill="url(#paint9_linear_398_81)"/>
<rect x="240.723" y="91.1729" width="39.9787" height="1.70122" rx="0.85061" fill="url(#paint10_linear_398_81)"/>
<rect x="240.723" y="104.783" width="39.9787" height="1.70122" rx="0.85061" fill="url(#paint11_linear_398_81)"/>
<rect x="240.723" y="26.5273" width="39.9787" height="1.70122" rx="0.85061" fill="url(#paint12_linear_398_81)"/>
<rect x="240.723" y="40.1367" width="39.9787" height="1.70122" rx="0.85061" fill="url(#paint13_linear_398_81)"/>
<rect x="240.723" y="53.7461" width="39.9787" height="1.70122" rx="0.85061" fill="url(#paint14_linear_398_81)"/>
<rect x="240.723" y="67.3564" width="39.9787" height="1.70122" rx="0.85061" fill="url(#paint15_linear_398_81)"/>
<rect x="240.723" y="80.9658" width="39.9787" height="1.70122" rx="0.85061" fill="url(#paint16_linear_398_81)"/>
<rect x="240.723" y="94.5762" width="39.9787" height="1.70122" rx="0.85061" fill="url(#paint17_linear_398_81)"/>
<rect x="240.723" y="108.186" width="39.9787" height="1.70122" rx="0.85061" fill="url(#paint18_linear_398_81)"/>
<rect x="240.723" y="29.9297" width="39.9787" height="1.70122" rx="0.85061" fill="url(#paint19_linear_398_81)"/>
<rect x="240.723" y="43.5391" width="39.9787" height="1.70122" rx="0.85061" fill="url(#paint20_linear_398_81)"/>
<rect x="240.723" y="57.1484" width="39.9787" height="1.70122" rx="0.85061" fill="url(#paint21_linear_398_81)"/>
<rect x="240.723" y="70.7588" width="39.9787" height="1.70122" rx="0.85061" fill="url(#paint22_linear_398_81)"/>
<rect x="240.723" y="84.3682" width="39.9787" height="1.70122" rx="0.85061" fill="url(#paint23_linear_398_81)"/>
<rect x="240.723" y="97.9785" width="39.9787" height="1.70122" rx="0.85061" fill="url(#paint24_linear_398_81)"/>
<rect x="240.723" y="111.588" width="39.9787" height="1.70122" rx="0.85061" fill="url(#paint25_linear_398_81)"/>
<rect x="240.723" y="33.332" width="39.9787" height="1.70122" rx="0.85061" fill="url(#paint26_linear_398_81)"/>
<rect x="240.723" y="46.9414" width="39.9787" height="1.70122" rx="0.85061" fill="url(#paint27_linear_398_81)"/>
<rect x="240.723" y="60.5518" width="39.9787" height="1.70122" rx="0.85061" fill="url(#paint28_linear_398_81)"/>
<rect x="240.723" y="74.1611" width="39.9787" height="1.70122" rx="0.85061" fill="url(#paint29_linear_398_81)"/>
<rect x="240.723" y="87.7705" width="39.9787" height="1.70122" rx="0.85061" fill="url(#paint30_linear_398_81)"/>
<rect x="240.723" y="101.381" width="39.9787" height="1.70122" rx="0.85061" fill="url(#paint31_linear_398_81)"/>
<rect x="240.723" y="114.99" width="39.9787" height="1.70122" rx="0.85061" fill="url(#paint32_linear_398_81)"/>
<path fill-rule="evenodd" clip-rule="evenodd" d="M167.571 63.9543C178.846 63.9543 187.986 54.8143 187.986 43.5396C187.986 32.2649 178.846 23.125 167.571 23.125C156.296 23.125 147.156 32.2649 147.156 43.5396C147.156 54.8143 156.296 63.9543 167.571 63.9543ZM167.571 55.4482C174.148 55.4482 179.479 50.1166 179.479 43.5396C179.479 36.9627 174.148 31.6311 167.571 31.6311C160.994 31.6311 155.662 36.9627 155.662 43.5396C155.662 50.1166 160.994 55.4482 167.571 55.4482Z" fill="url(#paint33_linear_398_81)"/>
<path fill-rule="evenodd" clip-rule="evenodd" d="M214.356 63.9543C225.631 63.9543 234.771 54.8143 234.771 43.5396C234.771 32.2649 225.631 23.125 214.356 23.125C203.081 23.125 193.941 32.2649 193.941 43.5396C193.941 54.8143 203.081 63.9543 214.356 63.9543ZM214.356 55.4482C220.933 55.4482 226.265 50.1166 226.265 43.5396C226.265 36.9627 220.933 31.6311 214.356 31.6311C207.779 31.6311 202.448 36.9627 202.448 43.5396C202.448 50.1166 207.779 55.4482 214.356 55.4482Z" fill="url(#paint34_linear_398_81)"/>
<path d="M298.565 268.951V307.654C258.87 325.375 177.353 362.773 168.847 370.599C137.8 353.445 69.0703 317.521 42.5312 311.056V277.457" stroke="url(#paint35_linear_398_81)" stroke-width="3" stroke-dasharray="5.1 5.1"/>
<path d="M39.9785 254.916C40.1203 217.489 41.5096 140.253 45.9328 130.727C86.3368 134.129 192.663 138.892 294.736 130.727C296.721 156.387 300.606 211.62 300.265 227.271" stroke="url(#paint36_linear_398_81)" stroke-width="3" stroke-dasharray="5.1 5.1"/>
<path d="M391.191 219.163V288.743C391.191 298.525 393.558 305.783 398.291 310.516C403.129 315.249 409.809 317.616 418.329 317.616C426.743 317.616 433.317 315.249 438.051 310.516C442.889 305.783 445.308 298.525 445.308 288.743V219.163H459.666V288.585C459.666 297.736 457.825 305.467 454.144 311.778C450.462 317.984 445.466 322.612 439.155 325.663C432.949 328.713 425.954 330.238 418.171 330.238C410.387 330.238 403.34 328.713 397.029 325.663C390.823 322.612 385.879 317.984 382.198 311.778C378.621 305.467 376.833 297.736 376.833 288.585V219.163H391.191ZM525.744 241.094C536.262 241.094 544.782 244.302 551.304 250.719C557.825 257.03 561.086 266.181 561.086 278.172V329.134H546.886V280.223C546.886 271.598 544.729 265.024 540.417 260.501C536.104 255.873 530.214 253.559 522.746 253.559C515.173 253.559 509.125 255.925 504.602 260.659C500.184 265.392 497.975 272.282 497.975 281.327V329.134H483.617V242.672H497.975V254.979C500.815 250.561 504.654 247.142 509.493 244.723C514.436 242.304 519.853 241.094 525.744 241.094ZM591.954 228.63C589.22 228.63 586.906 227.683 585.012 225.79C583.119 223.897 582.172 221.583 582.172 218.848C582.172 216.113 583.119 213.799 585.012 211.906C586.906 210.012 589.22 209.066 591.954 209.066C594.584 209.066 596.793 210.012 598.581 211.906C600.474 213.799 601.421 216.113 601.421 218.848C601.421 221.583 600.474 223.897 598.581 225.79C596.793 227.683 594.584 228.63 591.954 228.63ZM598.897 242.672V329.134H584.539V242.672H598.897ZM653.976 330.554C647.349 330.554 641.406 329.449 636.147 327.24C630.888 324.926 626.733 321.771 623.682 317.774C620.632 313.672 618.949 308.991 618.634 303.732H633.465C633.885 308.044 635.884 311.568 639.46 314.303C643.142 317.038 647.927 318.405 653.818 318.405C659.287 318.405 663.6 317.195 666.755 314.776C669.911 312.357 671.489 309.307 671.489 305.625C671.489 301.838 669.806 299.051 666.44 297.263C663.074 295.37 657.867 293.529 650.82 291.741C644.404 290.058 639.145 288.375 635.042 286.692C631.045 284.904 627.574 282.327 624.629 278.961C621.789 275.49 620.369 270.967 620.369 265.392C620.369 260.974 621.684 256.925 624.313 253.243C626.943 249.562 630.677 246.669 635.516 244.565C640.354 242.357 645.876 241.252 652.082 241.252C661.654 241.252 669.385 243.671 675.275 248.51C681.166 253.348 684.321 259.975 684.742 268.39H670.384C670.069 263.867 668.228 260.238 664.862 257.503C661.601 254.768 657.184 253.401 651.609 253.401C646.455 253.401 642.353 254.505 639.302 256.714C636.252 258.923 634.727 261.816 634.727 265.392C634.727 268.232 635.621 270.599 637.409 272.492C639.302 274.28 641.616 275.753 644.351 276.91C647.191 277.962 651.083 279.171 656.027 280.539C662.233 282.221 667.281 283.904 671.173 285.587C675.065 287.165 678.378 289.584 681.113 292.845C683.953 296.106 685.426 300.366 685.531 305.625C685.531 310.358 684.216 314.618 681.586 318.405C678.957 322.192 675.223 325.189 670.384 327.398C665.651 329.502 660.181 330.554 653.976 330.554ZM784.687 282.59C784.687 285.324 784.53 288.217 784.214 291.267H715.108C715.634 299.787 718.526 306.467 723.786 311.305C729.15 316.038 735.619 318.405 743.192 318.405C749.398 318.405 754.552 316.985 758.654 314.145C762.862 311.2 765.807 307.308 767.49 302.47H782.952C780.638 310.779 776.01 317.563 769.067 322.823C762.125 327.977 753.5 330.554 743.192 330.554C734.988 330.554 727.625 328.713 721.103 325.032C714.687 321.35 709.638 316.144 705.957 309.412C702.275 302.575 700.435 294.686 700.435 285.745C700.435 276.804 702.223 268.968 705.799 262.236C709.375 255.505 714.372 250.351 720.788 246.774C727.309 243.093 734.777 241.252 743.192 241.252C751.397 241.252 758.654 243.04 764.965 246.617C771.276 250.193 776.115 255.136 779.481 261.448C782.952 267.653 784.687 274.701 784.687 282.59ZM769.856 279.592C769.856 274.122 768.647 269.442 766.228 265.55C763.808 261.553 760.495 258.555 756.288 256.556C752.185 254.453 747.61 253.401 742.561 253.401C735.303 253.401 729.097 255.715 723.943 260.343C718.894 264.971 716.002 271.387 715.266 279.592H769.856ZM848.763 329.134L828.252 296.947L808.53 329.134H793.541L821.468 286.219L793.541 242.672H809.792L830.303 274.701L849.868 242.672H864.856L837.088 285.43L865.014 329.134H848.763ZM956.07 330.238C948.812 330.238 942.291 328.976 936.506 326.452C930.826 323.822 926.355 320.246 923.095 315.723C919.834 311.095 918.151 305.783 918.046 299.787H933.35C933.876 304.941 935.98 309.307 939.661 312.883C943.448 316.354 948.917 318.089 956.07 318.089C962.907 318.089 968.271 316.406 972.163 313.041C976.16 309.569 978.159 305.152 978.159 299.787C978.159 295.58 977.002 292.161 974.688 289.532C972.374 286.902 969.481 284.904 966.01 283.536C962.539 282.169 957.858 280.696 951.968 279.119C944.71 277.225 938.872 275.332 934.454 273.439C930.142 271.545 926.408 268.6 923.252 264.603C920.202 260.501 918.677 255.031 918.677 248.194C918.677 242.199 920.202 236.887 923.252 232.259C926.303 227.631 930.563 224.054 936.032 221.53C941.607 219.006 947.971 217.743 955.123 217.743C965.431 217.743 973.846 220.32 980.368 225.474C986.994 230.629 990.728 237.465 991.57 245.985H975.792C975.266 241.778 973.057 238.097 969.165 234.941C965.274 231.68 960.12 230.05 953.703 230.05C947.708 230.05 942.817 231.628 939.03 234.783C935.243 237.834 933.35 242.146 933.35 247.721C933.35 251.718 934.454 254.979 936.663 257.503C938.977 260.028 941.765 261.973 945.026 263.341C948.391 264.603 953.072 266.076 959.068 267.759C966.325 269.757 972.163 271.756 976.581 273.754C980.999 275.647 984.785 278.645 987.941 282.747C991.096 286.744 992.674 292.214 992.674 299.156C992.674 304.521 991.254 309.569 988.414 314.303C985.574 319.036 981.367 322.875 975.792 325.82C970.217 328.766 963.643 330.238 956.07 330.238ZM1008.44 285.587C1008.44 276.752 1010.23 269.021 1013.8 262.394C1017.38 255.662 1022.27 250.456 1028.48 246.774C1034.79 243.093 1041.78 241.252 1049.46 241.252C1057.03 241.252 1063.61 242.882 1069.18 246.143C1074.76 249.404 1078.91 253.506 1081.65 258.45V242.672H1096.16V329.134H1081.65V313.041C1078.81 318.089 1074.55 322.297 1068.87 325.663C1063.29 328.923 1056.77 330.554 1049.3 330.554C1041.62 330.554 1034.68 328.66 1028.48 324.874C1022.27 321.087 1017.38 315.775 1013.8 308.938C1010.23 302.101 1008.44 294.318 1008.44 285.587ZM1081.65 285.745C1081.65 279.224 1080.33 273.544 1077.7 268.705C1075.07 263.867 1071.5 260.185 1066.97 257.661C1062.56 255.031 1057.66 253.717 1052.3 253.717C1046.94 253.717 1042.04 254.979 1037.63 257.503C1033.21 260.028 1029.69 263.709 1027.06 268.548C1024.43 273.386 1023.11 279.066 1023.11 285.587C1023.11 292.214 1024.43 297.999 1027.06 302.943C1029.69 307.781 1033.21 311.515 1037.63 314.145C1042.04 316.669 1046.94 317.932 1052.3 317.932C1057.66 317.932 1062.56 316.669 1066.97 314.145C1071.5 311.515 1075.07 307.781 1077.7 302.943C1080.33 297.999 1081.65 292.267 1081.65 285.745ZM1134.78 212.379V329.134H1120.43V212.379H1134.78ZM1196.96 330.554C1188.86 330.554 1181.5 328.713 1174.87 325.032C1168.35 321.35 1163.2 316.144 1159.41 309.412C1155.73 302.575 1153.89 294.686 1153.89 285.745C1153.89 276.91 1155.78 269.126 1159.57 262.394C1163.46 255.557 1168.72 250.351 1175.35 246.774C1181.97 243.093 1189.39 241.252 1197.59 241.252C1205.8 241.252 1213.21 243.093 1219.84 246.774C1226.47 250.351 1231.67 255.505 1235.46 262.236C1239.35 268.968 1241.3 276.804 1241.3 285.745C1241.3 294.686 1239.3 302.575 1235.3 309.412C1231.41 316.144 1226.1 321.35 1219.37 325.032C1212.63 328.713 1205.17 330.554 1196.96 330.554ZM1196.96 317.932C1202.12 317.932 1206.95 316.722 1211.48 314.303C1216 311.884 1219.63 308.255 1222.36 303.416C1225.2 298.578 1226.62 292.687 1226.62 285.745C1226.62 278.803 1225.26 272.913 1222.52 268.074C1219.79 263.236 1216.21 259.659 1211.79 257.345C1207.38 254.926 1202.59 253.717 1197.44 253.717C1192.18 253.717 1187.34 254.926 1182.92 257.345C1178.61 259.659 1175.14 263.236 1172.51 268.074C1169.88 272.913 1168.56 278.803 1168.56 285.745C1168.56 292.793 1169.82 298.735 1172.35 303.574C1174.98 308.412 1178.45 312.041 1182.76 314.461C1187.07 316.775 1191.81 317.932 1196.96 317.932ZM1302.3 241.094C1312.82 241.094 1321.34 244.302 1327.86 250.719C1334.38 257.03 1337.64 266.181 1337.64 278.172V329.134H1323.44V280.223C1323.44 271.598 1321.29 265.024 1316.97 260.501C1312.66 255.873 1306.77 253.559 1299.3 253.559C1291.73 253.559 1285.68 255.925 1281.16 260.659C1276.74 265.392 1274.53 272.282 1274.53 281.327V329.134H1260.17V242.672H1274.53V254.979C1277.37 250.561 1281.21 247.142 1286.05 244.723C1290.99 242.304 1296.41 241.094 1302.3 241.094Z" fill="url(#paint37_linear_398_81)"/>
<path d="M450.199 108.896V136.349H412.333V150.707H458.719V181H374.467V62.6674H457.773L453.039 92.9606H412.333V108.896H450.199ZM523.052 137.769L539.303 62.6674H579.22L549.874 181H494.652L465.305 62.6674H505.223L521.316 137.769H523.052ZM664.369 108.896V136.349H626.503V150.707H672.889V181H588.636V62.6674H671.942L667.209 92.9606H626.503V108.896H664.369ZM771.617 141.556L792.128 181H750.474L735.012 145.816H726.808V181H688.942V62.6674H748.581C775.719 62.6674 789.288 76.4992 789.288 104.163C789.288 123.096 783.397 135.56 771.617 141.556ZM735.486 92.9606H726.808V116.627H735.486C740.114 116.627 743.427 116.154 745.426 115.207C747.529 114.26 748.581 112.104 748.581 108.738V100.849C748.581 97.4835 747.529 95.3272 745.426 94.3806C743.427 93.4339 740.114 92.9606 735.486 92.9606ZM881.158 108.896V136.349H843.292V150.707H889.678V181H805.425V62.6674H888.731L883.998 92.9606H843.292V108.896H881.158ZM900.997 178.949L906.362 147.709C917.932 150.549 928.398 151.969 937.759 151.969C942.493 151.969 946.647 151.916 950.224 151.811C953.905 151.601 957.166 151.285 960.006 150.865V141.398L942.966 139.978C935.287 139.242 928.871 137.98 923.717 136.191C918.563 134.403 914.408 131.984 911.253 128.934C908.202 125.778 905.993 122.044 904.626 117.732C903.364 113.314 902.733 108.16 902.733 102.269C902.733 94.1702 903.574 87.4384 905.257 82.074C906.94 76.6044 909.622 72.2392 913.304 68.9785C916.985 65.6126 921.719 63.2459 927.504 61.8785C933.394 60.5112 940.547 59.8275 948.961 59.8275C965.686 59.8275 980.832 61.4052 994.401 64.5608L989.668 94.8539C977.887 92.9606 968.473 92.0139 961.426 92.0139C954.378 92.0139 948.383 92.3295 943.439 92.9606V102.269L957.008 103.532C965.318 104.373 972.26 105.793 977.834 107.792C983.409 109.685 987.88 112.209 991.246 115.365C994.717 118.52 997.136 122.254 998.503 126.567C999.976 130.88 1000.71 135.823 1000.71 141.398C1000.71 149.392 999.66 156.124 997.557 161.593C995.453 167.063 992.928 171.218 989.983 174.058C987.564 176.372 984.566 178.213 980.99 179.58C977.414 180.842 973.627 181.789 969.63 182.42C965.633 183.051 961.583 183.419 957.481 183.524C953.484 183.735 949.855 183.84 946.595 183.84C938.39 183.84 930.501 183.419 922.928 182.578C915.355 181.736 908.045 180.527 900.997 178.949ZM1099.23 62.6674V92.9606H1071.77V181H1033.91V92.9606H1006.45V62.6674H1099.23Z" fill="url(#paint38_linear_398_81)"/>
<defs>
<linearGradient id="paint0_linear_398_81" x1="167.146" y1="91.3854" x2="214.781" y2="91.3854" gradientUnits="userSpaceOnUse">
<stop offset="0.00899963" stop-color="#ECBD56"/>
<stop offset="0.184" stop-color="#E2C584"/>
<stop offset="0.764" stop-color="#F0C156"/>
</linearGradient>
<linearGradient id="paint1_linear_398_81" x1="31.0488" y1="131.711" x2="307.072" y2="131.711" gradientUnits="userSpaceOnUse">
<stop offset="0.00899963" stop-color="#ECBD56"/>
<stop offset="0.184" stop-color="#E2C584"/>
<stop offset="0.764" stop-color="#F0C156"/>
</linearGradient>
<linearGradient id="paint2_linear_398_81" x1="31.0488" y1="131.711" x2="307.072" y2="131.711" gradientUnits="userSpaceOnUse">
<stop offset="0.00899963" stop-color="#ECBD56"/>
<stop offset="0.184" stop-color="#E2C584"/>
<stop offset="0.764" stop-color="#F0C156"/>
</linearGradient>
<linearGradient id="paint3_linear_398_81" x1="29.7715" y1="322.964" x2="308.346" y2="322.964" gradientUnits="userSpaceOnUse">
<stop offset="0.00899963" stop-color="#ECBD56"/>
<stop offset="0.184" stop-color="#E2C584"/>
<stop offset="0.764" stop-color="#F0C156"/>
</linearGradient>
<linearGradient id="paint4_linear_398_81" x1="0" y1="231.693" x2="326.634" y2="231.693" gradientUnits="userSpaceOnUse">
<stop offset="0.00899963" stop-color="#ECBD56"/>
<stop offset="0.184" stop-color="#E2C584"/>
<stop offset="0.764" stop-color="#F0C156"/>
</linearGradient>
<linearGradient id="paint5_linear_398_81" x1="240.723" y1="24.4004" x2="280.701" y2="24.4004" gradientUnits="userSpaceOnUse">
<stop offset="0.00899963" stop-color="#ECBD56"/>
<stop offset="0.184" stop-color="#E2C584"/>
<stop offset="0.764" stop-color="#F0C156"/>
</linearGradient>
<linearGradient id="paint6_linear_398_81" x1="240.723" y1="37.585" x2="280.701" y2="37.585" gradientUnits="userSpaceOnUse">
<stop offset="0.00899963" stop-color="#ECBD56"/>
<stop offset="0.184" stop-color="#E2C584"/>
<stop offset="0.764" stop-color="#F0C156"/>
</linearGradient>
<linearGradient id="paint7_linear_398_81" x1="240.723" y1="51.1944" x2="280.701" y2="51.1944" gradientUnits="userSpaceOnUse">
<stop offset="0.00899963" stop-color="#ECBD56"/>
<stop offset="0.184" stop-color="#E2C584"/>
<stop offset="0.764" stop-color="#F0C156"/>
</linearGradient>
<linearGradient id="paint8_linear_398_81" x1="240.723" y1="64.8047" x2="280.701" y2="64.8047" gradientUnits="userSpaceOnUse">
<stop offset="0.00899963" stop-color="#ECBD56"/>
<stop offset="0.184" stop-color="#E2C584"/>
<stop offset="0.764" stop-color="#F0C156"/>
</linearGradient>
<linearGradient id="paint9_linear_398_81" x1="240.723" y1="78.4141" x2="280.701" y2="78.4141" gradientUnits="userSpaceOnUse">
<stop offset="0.00899963" stop-color="#ECBD56"/>
<stop offset="0.184" stop-color="#E2C584"/>
<stop offset="0.764" stop-color="#F0C156"/>
</linearGradient>
<linearGradient id="paint10_linear_398_81" x1="240.723" y1="92.0235" x2="280.701" y2="92.0235" gradientUnits="userSpaceOnUse">
<stop offset="0.00899963" stop-color="#ECBD56"/>
<stop offset="0.184" stop-color="#E2C584"/>
<stop offset="0.764" stop-color="#F0C156"/>
</linearGradient>
<linearGradient id="paint11_linear_398_81" x1="240.723" y1="105.634" x2="280.701" y2="105.634" gradientUnits="userSpaceOnUse">
<stop offset="0.00899963" stop-color="#ECBD56"/>
<stop offset="0.184" stop-color="#E2C584"/>
<stop offset="0.764" stop-color="#F0C156"/>
</linearGradient>
<linearGradient id="paint12_linear_398_81" x1="240.723" y1="27.378" x2="280.701" y2="27.378" gradientUnits="userSpaceOnUse">
<stop offset="0.00899963" stop-color="#ECBD56"/>
<stop offset="0.184" stop-color="#E2C584"/>
<stop offset="0.764" stop-color="#F0C156"/>
</linearGradient>
<linearGradient id="paint13_linear_398_81" x1="240.723" y1="40.9873" x2="280.701" y2="40.9873" gradientUnits="userSpaceOnUse">
<stop offset="0.00899963" stop-color="#ECBD56"/>
<stop offset="0.184" stop-color="#E2C584"/>
<stop offset="0.764" stop-color="#F0C156"/>
</linearGradient>
<linearGradient id="paint14_linear_398_81" x1="240.723" y1="54.5967" x2="280.701" y2="54.5967" gradientUnits="userSpaceOnUse">
<stop offset="0.00899963" stop-color="#ECBD56"/>
<stop offset="0.184" stop-color="#E2C584"/>
<stop offset="0.764" stop-color="#F0C156"/>
</linearGradient>
<linearGradient id="paint15_linear_398_81" x1="240.723" y1="68.2071" x2="280.701" y2="68.2071" gradientUnits="userSpaceOnUse">
<stop offset="0.00899963" stop-color="#ECBD56"/>
<stop offset="0.184" stop-color="#E2C584"/>
<stop offset="0.764" stop-color="#F0C156"/>
</linearGradient>
<linearGradient id="paint16_linear_398_81" x1="240.723" y1="81.8164" x2="280.701" y2="81.8164" gradientUnits="userSpaceOnUse">
<stop offset="0.00899963" stop-color="#ECBD56"/>
<stop offset="0.184" stop-color="#E2C584"/>
<stop offset="0.764" stop-color="#F0C156"/>
</linearGradient>
<linearGradient id="paint17_linear_398_81" x1="240.723" y1="95.4268" x2="280.701" y2="95.4268" gradientUnits="userSpaceOnUse">
<stop offset="0.00899963" stop-color="#ECBD56"/>
<stop offset="0.184" stop-color="#E2C584"/>
<stop offset="0.764" stop-color="#F0C156"/>
</linearGradient>
<linearGradient id="paint18_linear_398_81" x1="240.723" y1="109.036" x2="280.701" y2="109.036" gradientUnits="userSpaceOnUse">
<stop offset="0.00899963" stop-color="#ECBD56"/>
<stop offset="0.184" stop-color="#E2C584"/>
<stop offset="0.764" stop-color="#F0C156"/>
</linearGradient>
<linearGradient id="paint19_linear_398_81" x1="240.723" y1="30.7803" x2="280.701" y2="30.7803" gradientUnits="userSpaceOnUse">
<stop offset="0.00899963" stop-color="#ECBD56"/>
<stop offset="0.184" stop-color="#E2C584"/>
<stop offset="0.764" stop-color="#F0C156"/>
</linearGradient>
<linearGradient id="paint20_linear_398_81" x1="240.723" y1="44.3897" x2="280.701" y2="44.3897" gradientUnits="userSpaceOnUse">
<stop offset="0.00899963" stop-color="#ECBD56"/>
<stop offset="0.184" stop-color="#E2C584"/>
<stop offset="0.764" stop-color="#F0C156"/>
</linearGradient>
<linearGradient id="paint21_linear_398_81" x1="240.723" y1="57.999" x2="280.701" y2="57.999" gradientUnits="userSpaceOnUse">
<stop offset="0.00899963" stop-color="#ECBD56"/>
<stop offset="0.184" stop-color="#E2C584"/>
<stop offset="0.764" stop-color="#F0C156"/>
</linearGradient>
<linearGradient id="paint22_linear_398_81" x1="240.723" y1="71.6094" x2="280.701" y2="71.6094" gradientUnits="userSpaceOnUse">
<stop offset="0.00899963" stop-color="#ECBD56"/>
<stop offset="0.184" stop-color="#E2C584"/>
<stop offset="0.764" stop-color="#F0C156"/>
</linearGradient>
<linearGradient id="paint23_linear_398_81" x1="240.723" y1="85.2188" x2="280.701" y2="85.2188" gradientUnits="userSpaceOnUse">
<stop offset="0.00899963" stop-color="#ECBD56"/>
<stop offset="0.184" stop-color="#E2C584"/>
<stop offset="0.764" stop-color="#F0C156"/>
</linearGradient>
<linearGradient id="paint24_linear_398_81" x1="240.723" y1="98.8291" x2="280.701" y2="98.8291" gradientUnits="userSpaceOnUse">
<stop offset="0.00899963" stop-color="#ECBD56"/>
<stop offset="0.184" stop-color="#E2C584"/>
<stop offset="0.764" stop-color="#F0C156"/>
</linearGradient>
<linearGradient id="paint25_linear_398_81" x1="240.723" y1="112.439" x2="280.701" y2="112.439" gradientUnits="userSpaceOnUse">
<stop offset="0.00899963" stop-color="#ECBD56"/>
<stop offset="0.184" stop-color="#E2C584"/>
<stop offset="0.764" stop-color="#F0C156"/>
</linearGradient>
<linearGradient id="paint26_linear_398_81" x1="240.723" y1="34.1826" x2="280.701" y2="34.1826" gradientUnits="userSpaceOnUse">
<stop offset="0.00899963" stop-color="#ECBD56"/>
<stop offset="0.184" stop-color="#E2C584"/>
<stop offset="0.764" stop-color="#F0C156"/>
</linearGradient>
<linearGradient id="paint27_linear_398_81" x1="240.723" y1="47.792" x2="280.701" y2="47.792" gradientUnits="userSpaceOnUse">
<stop offset="0.00899963" stop-color="#ECBD56"/>
<stop offset="0.184" stop-color="#E2C584"/>
<stop offset="0.764" stop-color="#F0C156"/>
</linearGradient>
<linearGradient id="paint28_linear_398_81" x1="240.723" y1="61.4024" x2="280.701" y2="61.4024" gradientUnits="userSpaceOnUse">
<stop offset="0.00899963" stop-color="#ECBD56"/>
<stop offset="0.184" stop-color="#E2C584"/>
<stop offset="0.764" stop-color="#F0C156"/>
</linearGradient>
<linearGradient id="paint29_linear_398_81" x1="240.723" y1="75.0117" x2="280.701" y2="75.0117" gradientUnits="userSpaceOnUse">
<stop offset="0.00899963" stop-color="#ECBD56"/>
<stop offset="0.184" stop-color="#E2C584"/>
<stop offset="0.764" stop-color="#F0C156"/>
</linearGradient>
<linearGradient id="paint30_linear_398_81" x1="240.723" y1="88.6211" x2="280.701" y2="88.6211" gradientUnits="userSpaceOnUse">
<stop offset="0.00899963" stop-color="#ECBD56"/>
<stop offset="0.184" stop-color="#E2C584"/>
<stop offset="0.764" stop-color="#F0C156"/>
</linearGradient>
<linearGradient id="paint31_linear_398_81" x1="240.723" y1="102.231" x2="280.701" y2="102.231" gradientUnits="userSpaceOnUse">
<stop offset="0.00899963" stop-color="#ECBD56"/>
<stop offset="0.184" stop-color="#E2C584"/>
<stop offset="0.764" stop-color="#F0C156"/>
</linearGradient>
<linearGradient id="paint32_linear_398_81" x1="240.723" y1="115.841" x2="280.701" y2="115.841" gradientUnits="userSpaceOnUse">
<stop offset="0.00899963" stop-color="#ECBD56"/>
<stop offset="0.184" stop-color="#E2C584"/>
<stop offset="0.764" stop-color="#F0C156"/>
</linearGradient>
<linearGradient id="paint33_linear_398_81" x1="147.156" y1="43.5396" x2="187.986" y2="43.5396" gradientUnits="userSpaceOnUse">
<stop offset="0.00899963" stop-color="#ECBD56"/>
<stop offset="0.184" stop-color="#E2C584"/>
<stop offset="0.764" stop-color="#F0C156"/>
</linearGradient>
<linearGradient id="paint34_linear_398_81" x1="193.941" y1="43.5396" x2="234.771" y2="43.5396" gradientUnits="userSpaceOnUse">
<stop offset="0.00899963" stop-color="#ECBD56"/>
<stop offset="0.184" stop-color="#E2C584"/>
<stop offset="0.764" stop-color="#F0C156"/>
</linearGradient>
<linearGradient id="paint35_linear_398_81" x1="170.548" y1="268.951" x2="170.548" y2="370.599" gradientUnits="userSpaceOnUse">
<stop stop-color="#ECBD55"/>
<stop offset="1" stop-color="#F0C056"/>
</linearGradient>
<linearGradient id="paint36_linear_398_81" x1="170.132" y1="130.727" x2="170.132" y2="254.916" gradientUnits="userSpaceOnUse">
<stop stop-color="#ECBD55"/>
<stop offset="1" stop-color="#F0C056"/>
</linearGradient>
<linearGradient id="paint37_linear_398_81" x1="365" y1="273.634" x2="1349" y2="273.634" gradientUnits="userSpaceOnUse">
<stop offset="0.00899963" stop-color="#D9AA41"/>
<stop offset="0.184" stop-color="#C1983B"/>
<stop offset="1" stop-color="#FFD67A"/>
</linearGradient>
<linearGradient id="paint38_linear_398_81" x1="365" y1="135.5" x2="1101" y2="135.5" gradientUnits="userSpaceOnUse">
<stop stop-color="#D8AD4C"/>
<stop offset="1" stop-color="#EAC97D"/>
</linearGradient>
</defs>
</svg>
