<svg width="36" height="26" viewBox="0 0 36 26" fill="none" xmlns="http://www.w3.org/2000/svg">
<path fill-rule="evenodd" clip-rule="evenodd" d="M14.2814 17.5508V7.51818C17.843 9.19408 20.6014 10.813 23.8638 12.5585C21.1731 14.0507 17.843 15.7251 14.2814 17.5508ZM34.1302 2.52851C33.5158 1.71909 32.4687 1.08902 31.3539 0.880423C28.0773 0.258192 7.6355 0.256422 4.36062 0.880423C3.46666 1.04801 2.67062 1.45308 1.9868 2.08245C-0.894529 4.75676 0.00834201 19.0982 0.702853 21.4213C0.994902 22.4269 1.37245 23.1521 1.84792 23.6281C2.46051 24.2575 3.29925 24.6908 4.26266 24.8851C6.96057 25.4432 20.8597 25.7552 31.2969 24.9689C32.2585 24.8013 33.1097 24.3541 33.7811 23.6979C36.4452 21.0343 36.2636 5.88745 34.1302 2.52851Z" fill="#D1D1D1"/>
</svg>
